<svg xmlns="http://www.w3.org/2000/svg" width="14.008" height="14.005" viewBox="0 0 14.008 14.005"><g transform="translate(-858.998 -626.995)"><path d="M11,4.406A3.591,3.591,0,1,0,14.594,8,3.585,3.585,0,0,0,11,4.406Zm0,5.925A2.334,2.334,0,1,1,13.337,8,2.339,2.339,0,0,1,11,10.331Zm4.575-6.072a.837.837,0,1,0-.837.837A.838.838,0,0,0,15.578,4.259Zm2.378.85a4.144,4.144,0,0,0-1.131-2.934,4.172,4.172,0,0,0-2.934-1.131c-1.156-.066-4.622-.066-5.778,0A4.166,4.166,0,0,0,5.178,2.172,4.158,4.158,0,0,0,4.047,5.106c-.066,1.156-.066,4.622,0,5.778a4.145,4.145,0,0,0,1.131,2.934A4.177,4.177,0,0,0,8.112,14.95c1.156.066,4.622.066,5.778,0a4.145,4.145,0,0,0,2.934-1.131,4.172,4.172,0,0,0,1.131-2.934C18.022,9.728,18.022,6.266,17.956,5.109Zm-1.494,7.016a2.363,2.363,0,0,1-1.331,1.331A15.434,15.434,0,0,1,11,13.737a15.554,15.554,0,0,1-4.128-.281,2.363,2.363,0,0,1-1.331-1.331A15.434,15.434,0,0,1,5.263,8a15.554,15.554,0,0,1,.281-4.128A2.363,2.363,0,0,1,6.875,2.538,15.434,15.434,0,0,1,11,2.256a15.554,15.554,0,0,1,4.128.281,2.363,2.363,0,0,1,1.331,1.331A15.434,15.434,0,0,1,16.744,8,15.425,15.425,0,0,1,16.462,12.125Z" transform="translate(855 626)" fill="#fff"/></g></svg>