<svg xmlns="http://www.w3.org/2000/svg" width="274.984" height="58.561" viewBox="0 0 274.984 58.561"><path d="M1738.047-6241.64a4.6,4.6,0,0,1,4.419-4.615,4.6,4.6,0,0,1,4.421,4.615,4.6,4.6,0,0,1-4.421,4.617A4.6,4.6,0,0,1,1738.047-6241.64Zm.909,0a3.729,3.729,0,0,0,3.51,3.771,3.729,3.729,0,0,0,3.51-3.771,3.728,3.728,0,0,0-3.51-3.769A3.728,3.728,0,0,0,1738.956-6241.64Zm-24.675,2.081c0-1.624,2.016-2.535,2.016-2.535a3.18,3.18,0,0,1-1.039-2.081,2.04,2.04,0,0,1,2.014-2.08,2.014,2.014,0,0,1,2.016,1.951c0,1.43-1.886,2.339-1.886,2.339l2.341,2.47a3.422,3.422,0,0,0,.456-1.688h.778a4.513,4.513,0,0,1-.713,2.274l1.495,1.626h-1.04l-.975-1.041a3.347,3.347,0,0,1-2.6,1.3A2.668,2.668,0,0,1,1714.281-6239.56Zm.846,0c0,1.04.715,1.755,2.016,1.755a2.769,2.769,0,0,0,2.079-1.1l-2.469-2.666S1715.127-6240.794,1715.127-6239.56Zm.975-4.615a2.713,2.713,0,0,0,.844,1.69s1.5-.65,1.5-1.82a1.166,1.166,0,0,0-1.171-1.169A1.2,1.2,0,0,0,1716.1-6244.175Zm-12.241,5.332.713-.456a2.556,2.556,0,0,0,2.211,1.43,1.823,1.823,0,0,0,2.015-1.755c0-2.145-4.356-1.559-4.356-4.29a2.59,2.59,0,0,1,2.666-2.341,3.076,3.076,0,0,1,2.47,1.43l-.715.456a2.3,2.3,0,0,0-1.755-1.04,1.548,1.548,0,0,0-1.755,1.495c0,2.015,4.354,1.43,4.354,4.29a2.776,2.776,0,0,1-2.924,2.6A3.339,3.339,0,0,1,1703.862-6238.843Zm-37.493,0,.717-.456a2.55,2.55,0,0,0,2.209,1.43,1.821,1.821,0,0,0,2.014-1.755c0-2.145-4.354-1.559-4.354-4.29a2.588,2.588,0,0,1,2.664-2.341,3.081,3.081,0,0,1,2.472,1.43l-.717.456a2.292,2.292,0,0,0-1.755-1.04,1.55,1.55,0,0,0-1.755,1.495c0,2.015,4.356,1.43,4.356,4.29a2.776,2.776,0,0,1-2.925,2.6A3.342,3.342,0,0,1,1666.368-6238.843Zm-9.47,1.82-4.94-6.825h-.065v6.564h-.846v-8.971h.2l4.94,6.826h.065v-6.565h.844v8.971Zm-17.986-1.82.715-.456a2.556,2.556,0,0,0,2.211,1.43,1.823,1.823,0,0,0,2.016-1.755c0-2.145-4.356-1.559-4.356-4.29a2.589,2.589,0,0,1,2.666-2.341,3.075,3.075,0,0,1,2.468,1.43l-.713.456a2.3,2.3,0,0,0-1.755-1.04,1.548,1.548,0,0,0-1.755,1.495c0,2.015,4.354,1.43,4.354,4.29a2.776,2.776,0,0,1-2.925,2.6A3.343,3.343,0,0,1,1638.913-6238.843Zm-11.941-1.3v-5.849h.844v5.849a2.037,2.037,0,0,0,2.08,2.276,2.036,2.036,0,0,0,2.08-2.276v-5.849h.844v5.849a2.888,2.888,0,0,1-2.925,3.122A2.888,2.888,0,0,1,1626.972-6240.146Zm-10.047-1.495a4.6,4.6,0,0,1,4.419-4.615,4.279,4.279,0,0,1,3.445,1.951l-.715.456a3.5,3.5,0,0,0-2.73-1.561,3.728,3.728,0,0,0-3.51,3.769,3.729,3.729,0,0,0,3.51,3.771,3.62,3.62,0,0,0,2.989-1.819l.715.454a4.411,4.411,0,0,1-3.7,2.211A4.6,4.6,0,0,1,1616.924-6241.64Zm-10.423,2.8.716-.456a2.55,2.55,0,0,0,2.21,1.43,1.821,1.821,0,0,0,2.014-1.755c0-2.145-4.354-1.559-4.354-4.29a2.589,2.589,0,0,1,2.666-2.341,3.08,3.08,0,0,1,2.47,1.43l-.715.456a2.3,2.3,0,0,0-1.755-1.04,1.549,1.549,0,0,0-1.755,1.495c0,2.015,4.354,1.43,4.354,4.29a2.777,2.777,0,0,1-2.925,2.6A3.342,3.342,0,0,1,1606.5-6238.843Zm128.178,1.56v-8.71h.846v8.71Zm-8.021,0v-8.71h2.47a2.406,2.406,0,0,1,2.666,2.08,1.89,1.89,0,0,1-1.5,1.755v.065a2.4,2.4,0,0,1,2.015,2.34c0,1.3-1.171,2.47-3.056,2.47Zm.844-.846h1.755c1.365,0,2.145-.78,2.145-1.755s-.78-1.755-2.145-1.755H1727.5Zm0-4.29h1.626c1.1,0,1.755-.65,1.755-1.365s-.65-1.365-1.755-1.365H1727.5Zm-26.749,5.136v-8.71h.846v8.71Zm-3.007,0-.586-1.626h-4.094l-.586,1.626h-.911l3.51-9.231h.065l3.51,9.231Zm-4.354-2.47h3.444l-1.69-4.615h-.065Zm-4.05,2.47-2.016-3.51h-2.209v3.51h-.844v-8.71h2.6c1.884,0,3.056,1.169,3.056,2.6a2.423,2.423,0,0,1-1.755,2.339v.064l2.209,3.706Zm-4.225-4.356h1.755c1.365,0,2.145-.779,2.145-1.753s-.78-1.756-2.145-1.756h-1.755Zm-7.678,4.356v-8.71h4.811v.844h-3.965v3.575h2.925v.846h-2.925v3.446Zm-17.369,0v-8.71h4.68v.844h-3.835v2.991h2.8v.844h-2.8v3.185h3.966v.846Zm-13.04,0v-8.71h.846v8.71Zm-11.225,0v-8.71h.844v8.71Zm-31.849,0-.586-1.626h-4.094l-.586,1.626h-.909l3.51-9.231h.065l3.51,9.231Zm-4.354-2.47h3.445l-1.69-4.615h-.065Zm-7.67,2.47v-8.71h2.016a3.149,3.149,0,0,1,3.444,2.989,3.149,3.149,0,0,1-3.444,2.991h-1.17v2.73Zm.846-3.575h1.17a2.278,2.278,0,0,0,2.535-2.146,2.277,2.277,0,0,0-2.535-2.145h-1.17Zm-8.054,3.575v-8.71h4.68v.844h-3.835v2.991h2.8v.844h-2.8v3.185h3.965v.846Zm-3.139,0-2.015-3.51h-2.21v3.51h-.846v-8.71h2.6c1.885,0,3.056,1.169,3.056,2.6a2.423,2.423,0,0,1-1.755,2.339v.064l2.21,3.706Zm-4.225-4.356h1.755c1.365,0,2.145-.779,2.145-1.753s-.78-1.756-2.145-1.756h-1.755Zm84.4-6.174,1.69-1.04.39.715-1.821.846Zm-85.294-5v-.83h211.716v.83Zm59.633-26.141v18.937h-1.163v-22.757l13.455,19.766v-18.936h1.162v22.757Zm99.259,7.972c0-6.312,5.316-11.627,11.13-11.627a10.91,10.91,0,0,1,8.636,4.651l-1,.665a9.67,9.67,0,0,0-7.641-4.152c-5.15,0-9.967,4.817-9.967,10.464s4.817,10.465,9.967,10.465c5.814,0,8.3-5.15,8.3-5.15l1,.665s-2.825,5.648-9.3,5.648C1740.675-6259.359,1735.359-6264.675,1735.359-6270.988Zm-128,0c0-6.312,5.314-11.627,11.128-11.627s11.13,5.316,11.13,11.627-5.316,11.628-11.13,11.628S1607.363-6264.675,1607.363-6270.988Zm1.162,0c0,5.648,4.818,10.465,9.967,10.465s9.967-4.817,9.967-10.465-4.817-10.464-9.967-10.464S1608.525-6276.635,1608.525-6270.988Zm168.362,10.964v-21.927h1.162v20.764h10.134v1.164Zm-16.777,0v-21.927h11.3v1.163h-10.134v8.97h7.476v1.163h-7.476v9.468h10.466v1.164Zm-29.4,0-5.647-9.3h-6.479v9.3h-1.162v-21.927h6.146c4.651,0,7.475,2.824,7.475,6.313,0,4.817-4.651,5.979-4.651,5.979v.167l5.647,9.468Zm-12.126-10.466h4.984c3.985,0,6.312-2.325,6.312-5.148s-2.326-5.15-6.312-5.15h-4.984Zm-7.309,10.466-1.66-4.651h-11.3l-1.662,4.651h-1.163l8.472-23.256,8.472,23.256Zm-12.457-5.814h10.3l-5.15-14.119Zm-9.635,5.814v-19.1l-8.636,12.459-8.638-12.459v19.1h-1.163v-22.757l9.8,14.119,9.8-14.119v22.757Zm-96.934,0v-21.927h11.3v1.163H1593.41v8.97h7.475v1.163h-7.475v9.468h10.465v1.164Zm-15.78,0v-21.927h1.162v20.764h10.134v1.164Zm78.2-7.953c0-2.352,2.917-3.669,2.917-3.669a4.6,4.6,0,0,1-1.506-3.011,2.954,2.954,0,0,1,2.918-3.011,2.914,2.914,0,0,1,2.917,2.823c0,2.069-2.729,3.387-2.729,3.387l3.387,3.576a4.98,4.98,0,0,0,.658-2.446h1.13a6.526,6.526,0,0,1-1.035,3.294l2.165,2.352h-1.506l-1.413-1.506a4.85,4.85,0,0,1-3.764,1.883A3.859,3.859,0,0,1,1654.667-6267.977Zm1.223,0c0,1.506,1.035,2.541,2.917,2.541a4.019,4.019,0,0,0,3.011-1.6l-3.575-3.859S1655.89-6269.763,1655.89-6267.977Zm1.411-6.681a3.924,3.924,0,0,0,1.223,2.446s2.164-.941,2.164-2.634a1.685,1.685,0,0,0-1.692-1.695A1.738,1.738,0,0,0,1657.3-6274.657Zm-60.9-11.779,3.987-2.325.664,1-4.152,2.161Z" transform="translate(-1513.698 6295.084)" fill="#fff" stroke="rgba(0,0,0,0)" stroke-miterlimit="10" stroke-width="1"/><path d="M7.089-18.354q.344.408.706.8l-4.55,2.929a2.124,2.124,0,0,0-.636,2.935L5.48-7.229a2.124,2.124,0,0,0,2.935.636l7.734-4.979.311.136.563.23.319.121L8.986-5.705a3.181,3.181,0,0,1-4.395-.952l-2.87-4.459a3.181,3.181,0,0,1,.952-4.394Z" transform="translate(-1.215 59.38)" fill="#fff" fill-rule="evenodd"/><path d="M48.839-44.857a3.171,3.171,0,0,1,3.07,1.43l2.87,4.459a3.181,3.181,0,0,1-.952,4.395L51.067-32.8l.022-.347q.012-.32.024-.64l0-.3,2.138-1.376a2.124,2.124,0,0,0,.636-2.935l-2.871-4.459a2.121,2.121,0,0,0-1.736-.973Q49.074-44.348,48.839-44.857Z" transform="translate(-1.215 59.38)" fill="#fff" fill-rule="evenodd"/><path d="M51.112-33.741a24.325,24.325,0,0,1,1.339,7.985A24.437,24.437,0,0,1,28.026-1.33,24.437,24.437,0,0,1,3.7-23.578a24.814,24.814,0,0,0,3.37,5.2l.021.025q.333.4.683.777l.023.025a25.008,25.008,0,0,0,8.316,5.963l.037.017.311.136.563.23.319.121a24.826,24.826,0,0,0,8.827,1.611,24.965,24.965,0,0,0,24.9-23.285l0-.038.022-.347Z" transform="translate(-1.215 59.38)" fill="#fff" fill-rule="evenodd"/><path d="M3.614-26.534A24.435,24.435,0,0,1,28.026-50.18,24.435,24.435,0,0,1,49.978-36.467q.088,1.009.088,2.04,0,.5-.022,1v.032l-.007.195q-.019.3-.039.609l-.045.512A23.911,23.911,0,0,1,26.169-10.53a23.823,23.823,0,0,1-7.682-1.264l-.028-.01-.5-.177-.546-.208-.186-.076a23.923,23.923,0,0,1-8.5-5.838l-.028-.03q-.354-.378-.69-.772l-.022-.026A23.739,23.739,0,0,1,3.614-26.534Z" transform="translate(-1.215 59.38)" fill="#fff" fill-rule="evenodd"/><path d="M26.169-36.565a2.14,2.14,0,0,1,2.138,2.139,2.14,2.14,0,0,1-2.138,2.139,2.139,2.139,0,0,1-2.139-2.139A2.139,2.139,0,0,1,26.169-36.565Z" transform="translate(-1.215 59.38)" fill="#32aa4a" fill-rule="evenodd"/><path d="M3.7-23.578A24.774,24.774,0,0,1,1.215-34.427,24.965,24.965,0,0,1,26.169-59.38,24.966,24.966,0,0,1,48.839-44.857l.015.032q.227.492.432,1a2.091,2.091,0,0,0-1.041.246q-.2-.489-.428-.968a3.105,3.105,0,0,1,.619-.232,3.076,3.076,0,0,0-.619.232A23.907,23.907,0,0,0,26.169-58.324a23.909,23.909,0,0,0-23.9,23.9,23.674,23.674,0,0,0,1.343,7.893q-.014.389-.014.779Q3.6-24.655,3.7-23.578Z" transform="translate(-1.215 59.38)" fill="#fff" fill-rule="evenodd"/><path d="M49.978-36.467a23.649,23.649,0,0,0-1.733-7.115,2.108,2.108,0,0,1,1.041-.246,24.816,24.816,0,0,1,1.836,9.4l-.008.644,0,.043A24.224,24.224,0,0,0,49.978-36.467Z" transform="translate(-1.215 59.38)" fill="#fff" fill-rule="evenodd"/><path d="M49.978-36.467a24.04,24.04,0,0,1,1.134,2.727l-.023.6-.022.347,0,.038a24.965,24.965,0,0,1-24.9,23.285,24.826,24.826,0,0,1-8.827-1.611l-.319-.121-.563-.23-.311-.136-.037-.017a25.008,25.008,0,0,1-8.316-5.963l-.023-.025q-.35-.381-.683-.777l-.021-.025a24.814,24.814,0,0,1-3.37-5.2q-.1-1.076-.1-2.177,0-.39.014-.779a23.739,23.739,0,0,0,4.371,7.6l.022.026q.337.394.69.772l.028.03a23.923,23.923,0,0,0,8.5,5.838l.186.076.546.208.5.177.028.01a23.823,23.823,0,0,0,7.682,1.264A23.911,23.911,0,0,0,49.95-32.078L50-32.589q.019-.3.039-.609l.007-.195v-.032q.023-.5.022-1Q50.066-35.458,49.978-36.467Z" transform="translate(-1.215 59.38)" fill="#32aa4a" fill-rule="evenodd"/></svg>