<svg height="121.479" viewBox="0 0 163.801 121.479" width="163.801" xmlns="http://www.w3.org/2000/svg"><g fill-rule="evenodd" transform="translate(-1.404 121.479)"><path d="m8.192-74.045q.4.472.815.927l-5.257 3.387a2.457 2.457 0 0 0 -.735 3.393l3.317 5.155a2.454 2.454 0 0 0 3.391.735l8.937-5.752.36.158.651.266.368.14-9.655 6.219a3.675 3.675 0 0 1 -5.078-1.1l-3.317-5.16a3.679 3.679 0 0 1 1.1-5.081z" fill="#1c1c1b"/><path d="m56.436-104.688a3.664 3.664 0 0 1 3.548 1.654l3.316 5.155a3.679 3.679 0 0 1 -1.1 5.079l-3.189 2.054.025-.4.028-.74v-.349l2.471-1.591a2.457 2.457 0 0 0 .735-3.393l-3.317-5.155a2.452 2.452 0 0 0 -2.006-1.125q-.24-.601-.511-1.189z" fill="#1c1c1b"/><path d="m32.385-110.842a28.246 28.246 0 0 1 28.225 28.242 28.246 28.246 0 0 1 -28.225 28.24 28.246 28.246 0 0 1 -28.225-28.24 28.246 28.246 0 0 1 28.225-28.242z" fill="#32aa4a"/><path d="m30.239-95.1a2.473 2.473 0 0 1 2.471 2.472 2.473 2.473 0 0 1 -2.471 2.473 2.473 2.473 0 0 1 -2.471-2.473 2.473 2.473 0 0 1 2.471-2.472z" fill="#1c1c1b"/><path d="m8.167-74.074a28.726 28.726 0 0 1 -6.767-18.554 28.856 28.856 0 0 1 28.835-28.851 28.848 28.848 0 0 1 26.2 16.791l.017.037q.262.57.5 1.153a2.42 2.42 0 0 0 -1.2.284q-.235-.566-.495-1.119a3.629 3.629 0 0 1 .715-.268 3.558 3.558 0 0 0 -.715.268 27.626 27.626 0 0 0 -25.016-15.925 27.635 27.635 0 0 0 -27.616 27.63 27.513 27.513 0 0 0 6.6 17.917l.025.029q.389.456.8.893l.032.034a27.645 27.645 0 0 0 9.818 6.755l.215.088.631.24.581.205.033.011a27.517 27.517 0 0 0 8.879 1.456 27.637 27.637 0 0 0 27.482-24.912l.053-.591.045-.7.009-.225v-.037q.026-.575.026-1.158a27.5 27.5 0 0 0 -2.1-10.586 2.432 2.432 0 0 1 1.2-.284 28.7 28.7 0 0 1 2.122 10.87l-.009.744-.028.74-.025.4v.044a28.855 28.855 0 0 1 -28.775 26.917 28.675 28.675 0 0 1 -10.2-1.862l-.368-.14-.651-.266-.36-.158-.043-.019a28.9 28.9 0 0 1 -9.609-6.894l-.026-.028q-.4-.441-.789-.9z" fill="#1c1c1b"/></g><path d="m1190.3-104.884c0-7.3 6.145-13.444 12.867-13.444a12.617 12.617 0 0 1 9.987 5.377l-1.152.769a11.183 11.183 0 0 0 -8.835-4.8c-5.953 0-11.523 5.569-11.523 12.1s5.57 12.1 11.523 12.1c6.722 0 9.6-5.954 9.6-5.954l1.152.769s-3.265 6.53-10.755 6.53c-6.723-.004-12.864-6.149-12.864-13.447zm48.013 12.676v-25.352h1.344v24.007h11.715v1.345zm-19.4 0v-25.352h13.059v1.345h-11.715v10.371h8.642v1.345h-8.642v10.947h12.1v1.345zm-33.994 0-6.53-10.755h-7.489v10.755h-1.344v-25.352h7.105c5.377 0 8.643 3.265 8.643 7.3 0 5.569-5.378 6.914-5.378 6.914v.192l6.53 10.948zm-14.02-12.1h5.762c4.61 0 7.3-2.689 7.3-5.953s-2.688-5.953-7.3-5.953h-5.761zm-8.45 12.1-1.921-5.378h-13.059l-1.921 5.378h-1.348l9.8-26.892 9.795 26.887zm-14.4-6.722h11.907l-5.956-16.325zm-11.139 6.722v-22.086l-9.986 14.4-9.987-14.4v22.086h-1.344v-26.312l11.331 16.324 11.331-16.324v26.312zm-39.91-15.105c0-2.721 3.373-4.243 3.373-4.243a5.313 5.313 0 0 1 -1.741-3.482 3.414 3.414 0 0 1 3.373-3.481 3.369 3.369 0 0 1 3.373 3.264c0 2.393-3.155 3.917-3.155 3.917l3.917 4.135a5.759 5.759 0 0 0 .761-2.83h1.306a7.548 7.548 0 0 1 -1.2 3.809l2.5 2.72h-1.741l-1.632-1.741a5.609 5.609 0 0 1 -4.352 2.176c-2.824-.001-4.782-1.959-4.782-4.244zm1.414 0c0 1.741 1.2 2.938 3.373 2.938a4.645 4.645 0 0 0 3.482-1.85l-4.135-4.461s-2.72 1.305-2.72 3.373zm1.633-7.726a4.542 4.542 0 0 0 1.414 2.83s2.5-1.088 2.5-3.047a1.95 1.95 0 0 0 -1.958-1.958 2.009 2.009 0 0 0 -1.956 2.175zm124.046-30.919v21.894h-1.345v-26.312l15.557 22.855v-21.894h1.344v26.315zm-33.224 9.219c0-7.3 6.145-13.443 12.867-13.443s12.867 6.145 12.867 13.443-6.146 13.443-12.867 13.443-12.868-6.145-12.868-13.443zm1.344 0c0 6.529 5.57 12.1 11.524 12.1s11.523-5.57 11.523-12.1-5.569-12.1-11.523-12.1-11.525 5.571-11.525 12.1zm-18.821 12.676v-25.351h13.06v1.345h-11.715v10.369h8.642v1.345h-8.642v10.947h12.1v1.345zm-18.245 0v-25.351h1.344v24.007h11.715v1.345zm23.046-30.536 4.609-2.689.769 1.152-4.8 2.5z" fill="#1c1c1b" transform="translate(-1087.875 190.861)"/><path d="m1226.1-151.738a3.536 3.536 0 0 1 3.4-3.55 3.536 3.536 0 0 1 3.4 3.55 3.535 3.535 0 0 1 -3.4 3.55 3.536 3.536 0 0 1 -3.4-3.55zm.7 0a2.867 2.867 0 0 0 2.7 2.9 2.868 2.868 0 0 0 2.7-2.9 2.868 2.868 0 0 0 -2.7-2.9 2.867 2.867 0 0 0 -2.7 2.9zm-19.69 1.6c0-1.25 1.55-1.95 1.55-1.95a2.443 2.443 0 0 1 -.8-1.6 1.569 1.569 0 0 1 1.55-1.6 1.549 1.549 0 0 1 1.551 1.5c0 1.1-1.451 1.8-1.451 1.8l1.8 1.9a2.643 2.643 0 0 0 .35-1.3h.6a3.468 3.468 0 0 1 -.55 1.75l1.15 1.25h-.8l-.751-.8a2.575 2.575 0 0 1 -2 1 2.051 2.051 0 0 1 -2.199-1.95zm.65 0c0 .8.55 1.35 1.55 1.35a2.135 2.135 0 0 0 1.6-.85l-1.9-2.05s-1.25.6-1.25 1.55zm.75-3.551a2.087 2.087 0 0 0 .651 1.3s1.149-.5 1.149-1.4a.9.9 0 0 0 -.9-.9.923.923 0 0 0 -.901 1zm-9.72 4.1.551-.35a1.962 1.962 0 0 0 1.7 1.1 1.4 1.4 0 0 0 1.551-1.35c0-1.65-3.351-1.2-3.351-3.3a1.991 1.991 0 0 1 2.05-1.8 2.367 2.367 0 0 1 1.9 1.1l-.55.349a1.764 1.764 0 0 0 -1.35-.8 1.192 1.192 0 0 0 -1.35 1.149c0 1.551 3.35 1.1 3.35 3.3a2.135 2.135 0 0 1 -2.25 2 2.571 2.571 0 0 1 -2.252-1.397zm-29.959 0 .55-.35a1.963 1.963 0 0 0 1.7 1.1 1.4 1.4 0 0 0 1.55-1.35c0-1.65-3.351-1.2-3.351-3.3a1.991 1.991 0 0 1 2.05-1.8 2.367 2.367 0 0 1 1.9 1.1l-.55.349a1.764 1.764 0 0 0 -1.35-.8 1.192 1.192 0 0 0 -1.35 1.149c0 1.551 3.351 1.1 3.351 3.3a2.135 2.135 0 0 1 -2.25 2 2.569 2.569 0 0 1 -2.251-1.397zm-7.77 1.4-3.8-5.25h-.05v5.05h-.65v-6.9h.149l3.8 5.251h.05v-5.05h.65v6.9zm-14.171-1.4.55-.35a1.964 1.964 0 0 0 1.7 1.1 1.4 1.4 0 0 0 1.55-1.35c0-1.65-3.35-1.2-3.35-3.3a1.991 1.991 0 0 1 2.05-1.8 2.367 2.367 0 0 1 1.9 1.1l-.55.349a1.766 1.766 0 0 0 -1.35-.8 1.192 1.192 0 0 0 -1.35 1.149c0 1.551 3.35 1.1 3.35 3.3a2.135 2.135 0 0 1 -2.25 2 2.569 2.569 0 0 1 -2.25-1.397zm-9.57-1v-4.5h.65v4.5a1.566 1.566 0 0 0 1.6 1.75 1.567 1.567 0 0 0 1.6-1.75v-4.5h.65v4.5a2.221 2.221 0 0 1 -2.25 2.4 2.221 2.221 0 0 1 -2.25-2.399zm-8.01-1.15a3.536 3.536 0 0 1 3.4-3.55 3.292 3.292 0 0 1 2.65 1.5l-.55.35a2.688 2.688 0 0 0 -2.1-1.2 2.867 2.867 0 0 0 -2.7 2.9 2.867 2.867 0 0 0 2.7 2.9 2.786 2.786 0 0 0 2.3-1.4l.55.35a3.394 3.394 0 0 1 -2.849 1.7 3.536 3.536 0 0 1 -3.401-3.549zm-8.321 2.15.551-.35a1.962 1.962 0 0 0 1.7 1.1 1.4 1.4 0 0 0 1.551-1.35c0-1.65-3.351-1.2-3.351-3.3a1.991 1.991 0 0 1 2.05-1.8 2.367 2.367 0 0 1 1.9 1.1l-.55.349a1.764 1.764 0 0 0 -1.35-.8 1.192 1.192 0 0 0 -1.35 1.149c0 1.551 3.35 1.1 3.35 3.3a2.135 2.135 0 0 1 -2.25 2 2.571 2.571 0 0 1 -2.25-1.397zm102.4 1.2v-6.7h.65v6.7zm-6.41 0v-6.7h1.9a1.848 1.848 0 0 1 2.049 1.6 1.452 1.452 0 0 1 -1.149 1.35v.05a1.847 1.847 0 0 1 1.55 1.8 2.1 2.1 0 0 1 -2.35 1.9zm.65-.65h1.35c1.049 0 1.65-.6 1.65-1.35s-.6-1.35-1.65-1.35h-1.35zm0-3.3h1.25c.85 0 1.35-.5 1.35-1.05s-.5-1.049-1.35-1.049h-1.25zm-21.351 3.95v-6.7h.651v6.7zm-2.56 0-.45-1.25h-3.15l-.45 1.25h-.7l2.7-7.1h.05l2.7 7.1zm-3.35-1.9h2.65l-1.3-3.551h-.05zm-3.361 1.9-1.55-2.7h-1.7v2.7h-.65v-6.7h2a2.109 2.109 0 0 1 2.351 2 1.864 1.864 0 0 1 -1.35 1.8v.049l1.7 2.85zm-3.25-3.35h1.35c1.05 0 1.651-.6 1.651-1.35s-.6-1.35-1.651-1.35h-1.35zm-6.11 3.35v-6.7h3.7v.65h-3.05v2.749h2.25v.651h-2.25v2.65zm-13.879 0v-6.7h3.6v.65h-2.95v2.3h2.15v.651h-2.15v2.45h3.05v.65zm-10.42 0v-6.7h.65v6.7zm-8.97 0v-6.7h.651v6.7zm-25.25 0-.45-1.25h-3.15l-.45 1.25h-.7l2.7-7.1h.05l2.7 7.1zm-3.35-1.9h2.65l-1.3-3.551h-.05zm-6.46 1.9v-6.7h1.55a2.422 2.422 0 0 1 2.65 2.3 2.423 2.423 0 0 1 -2.65 2.3h-.9v2.1zm.65-2.75h.9a1.752 1.752 0 0 0 1.95-1.65 1.752 1.752 0 0 0 -1.95-1.65h-.9zm-6.41 2.75v-6.7h3.6v.65h-2.95v2.3h2.15v.651h-2.15v2.45h3.05v.65zm-2.66 0-1.55-2.7h-1.7v2.7h-.648v-6.7h2a2.108 2.108 0 0 1 2.35 2 1.864 1.864 0 0 1 -1.35 1.8v.049l1.7 2.85zm-3.25-3.35h1.352c1.05 0 1.65-.6 1.65-1.35s-.6-1.35-1.65-1.35h-1.35zm67.42-4.75 1.3-.8.3.55-1.4.65z" fill="#1c1c1b" transform="translate(-1069.099 269.667)"/><path d="m29.305-14.183h135.595v-.96h-135.595z" fill="#32aa4a" fill-rule="evenodd" transform="translate(-1.404 121.479)"/></svg>