<svg xmlns="http://www.w3.org/2000/svg" width="274.413" height="58.06" viewBox="0 0 274.413 58.06"><g transform="translate(-1.214 59.38)"><g transform="translate(62.66 -1.58)"><path d="M5.2-3.7V-3.77A2.424,2.424,0,0,0,6.955-6.11c0-1.43-1.17-2.6-3.055-2.6H1.3V0h.845V-3.51h2.21L6.37,0H7.41Zm-3.055-.65v-3.51H3.9c1.365,0,2.145.78,2.145,1.755S5.265-4.355,3.9-4.355Z" fill="#1c1c1b"/><path d="M1.3,0H6.11V-.845H2.145V-4.03h2.8v-.845h-2.8v-2.99H5.98V-8.71H1.3Z" transform="translate(8.209)" fill="#1c1c1b"/><path d="M2.145-3.575v-4.29h1.17A2.277,2.277,0,0,1,5.85-5.72,2.277,2.277,0,0,1,3.315-3.575ZM6.76-5.72A3.15,3.15,0,0,0,3.315-8.71H1.3V0h.845V-2.73h1.17A3.15,3.15,0,0,0,6.76-5.72Zm3.965-3.51H10.66L7.15,0h.91l.585-1.625H12.74L13.325,0h.91ZM10.66-7.085h.065l1.69,4.615H8.97Z" transform="translate(15.417)" fill="#1c1c1b"/><path d="M3.64-8.97A2.588,2.588,0,0,0,.975-6.63C.975-3.9,5.33-4.485,5.33-2.34A1.822,1.822,0,0,1,3.315-.585a2.552,2.552,0,0,1-2.21-1.43L.39-1.56A3.34,3.34,0,0,0,3.315.26,2.776,2.776,0,0,0,6.24-2.34c0-2.86-4.355-2.275-4.355-4.29A1.55,1.55,0,0,1,3.64-8.125a2.3,2.3,0,0,1,1.755,1.04L6.11-7.54A3.078,3.078,0,0,0,3.64-8.97Z" transform="translate(30.897)" fill="#1c1c1b"/><path d="M5.07-8.97A4.6,4.6,0,0,0,.65-4.355,4.6,4.6,0,0,0,5.07.26,4.412,4.412,0,0,0,8.775-1.95L8.06-2.4A3.622,3.622,0,0,1,5.07-.585a3.728,3.728,0,0,1-3.51-3.77,3.728,3.728,0,0,1,3.51-3.77A3.5,3.5,0,0,1,7.8-6.565l.715-.455A4.28,4.28,0,0,0,5.07-8.97Z" transform="translate(41.058)" fill="#1c1c1b"/><path d="M6.305-2.86A2.037,2.037,0,0,1,4.225-.585,2.037,2.037,0,0,1,2.145-2.86V-8.71H1.3v5.85A2.888,2.888,0,0,0,4.225.26,2.888,2.888,0,0,0,7.15-2.86V-8.71H6.305Z" transform="translate(50.457)" fill="#1c1c1b"/><path d="M1.3,0h.845V-8.71H1.3Z" transform="translate(59.291)" fill="#1c1c1b"/><path d="M3.64-8.97A2.588,2.588,0,0,0,.975-6.63C.975-3.9,5.33-4.485,5.33-2.34A1.822,1.822,0,0,1,3.315-.585a2.552,2.552,0,0,1-2.21-1.43L.39-1.56A3.34,3.34,0,0,0,3.315.26,2.776,2.776,0,0,0,6.24-2.34c0-2.86-4.355-2.275-4.355-4.29A1.55,1.55,0,0,1,3.64-8.125a2.3,2.3,0,0,1,1.755,1.04L6.11-7.54A3.078,3.078,0,0,0,3.64-8.97Z" transform="translate(63.308)" fill="#1c1c1b"/><path d="M1.3,0h.845V-8.71H1.3Z" transform="translate(70.516)" fill="#1c1c1b"/><path d="M7.345.26V-8.71H6.5v6.565H6.435L1.5-8.97H1.3V0h.845V-6.565H2.21L7.15.26Z" transform="translate(74.533)" fill="#1c1c1b"/><path d="M1.3,0H6.11V-.845H2.145V-4.03h2.8v-.845h-2.8v-2.99H5.98V-8.71H1.3ZM5.07-10.855l-.39-.715L2.99-10.53l.26.52Z" transform="translate(83.556)" fill="#1c1c1b"/><path d="M3.64-8.97A2.588,2.588,0,0,0,.975-6.63C.975-3.9,5.33-4.485,5.33-2.34A1.822,1.822,0,0,1,3.315-.585a2.552,2.552,0,0,1-2.21-1.43L.39-1.56A3.34,3.34,0,0,0,3.315.26,2.776,2.776,0,0,0,6.24-2.34c0-2.86-4.355-2.275-4.355-4.29A1.55,1.55,0,0,1,3.64-8.125a2.3,2.3,0,0,1,1.755,1.04L6.11-7.54A3.078,3.078,0,0,0,3.64-8.97Z" transform="translate(90.764)" fill="#1c1c1b"/><path d="M1.3,0h.845V-3.445H5.07V-4.29H2.145V-7.865H6.11V-8.71H1.3Z" transform="translate(100.926)" fill="#1c1c1b"/><path d="M5.2-3.7V-3.77A2.424,2.424,0,0,0,6.955-6.11c0-1.43-1.17-2.6-3.055-2.6H1.3V0h.845V-3.51h2.21L6.37,0H7.41Zm-3.055-.65v-3.51H3.9c1.365,0,2.145.78,2.145,1.755S5.265-4.355,3.9-4.355Z" transform="translate(107.758)" fill="#1c1c1b"/><path d="M3.965-9.23H3.9L.39,0H1.3l.585-1.625h4.1L6.565,0h.91ZM3.9-7.085h.065L5.655-2.47H2.21Z" transform="translate(115.967)" fill="#1c1c1b"/><path d="M1.3,0h.845V-8.71H1.3Z" transform="translate(124.239)" fill="#1c1c1b"/><path d="M3.64-8.97A2.588,2.588,0,0,0,.975-6.63C.975-3.9,5.33-4.485,5.33-2.34A1.822,1.822,0,0,1,3.315-.585a2.552,2.552,0,0,1-2.21-1.43L.39-1.56A3.34,3.34,0,0,0,3.315.26,2.776,2.776,0,0,0,6.24-2.34c0-2.86-4.355-2.275-4.355-4.29A1.55,1.55,0,0,1,3.64-8.125a2.3,2.3,0,0,1,1.755,1.04L6.11-7.54A3.078,3.078,0,0,0,3.64-8.97Z" transform="translate(128.256)" fill="#1c1c1b"/><path d="M3.77-4.68s1.885-.91,1.885-2.34A2.013,2.013,0,0,0,3.64-8.97,2.04,2.04,0,0,0,1.625-6.89a3.175,3.175,0,0,0,1.04,2.08S.65-3.9.65-2.275A2.666,2.666,0,0,0,3.51.26a3.35,3.35,0,0,0,2.6-1.3L7.085,0h1.04L6.63-1.625A4.508,4.508,0,0,0,7.345-3.9h-.78A3.438,3.438,0,0,1,6.11-2.21ZM3.315-5.2A2.712,2.712,0,0,1,2.47-6.89a1.2,1.2,0,0,1,1.17-1.3A1.165,1.165,0,0,1,4.81-7.02C4.81-5.85,3.315-5.2,3.315-5.2ZM5.59-1.625A2.775,2.775,0,0,1,3.51-.52C2.21-.52,1.5-1.235,1.5-2.275,1.5-3.51,3.12-4.29,3.12-4.29Z" transform="translate(138.417)" fill="#1c1c1b"/><path d="M1.3,0H3.9C5.785,0,6.955-1.17,6.955-2.47A2.4,2.4,0,0,0,4.94-4.81v-.065A1.889,1.889,0,0,0,6.435-6.63,2.4,2.4,0,0,0,3.77-8.71H1.3Zm.845-.845v-3.51H3.9c1.365,0,2.145.78,2.145,1.755S5.265-.845,3.9-.845Zm0-4.29v-2.73H3.77c1.105,0,1.755.65,1.755,1.365S4.875-5.135,3.77-5.135Z" transform="translate(150.143)" fill="#1c1c1b"/><path d="M1.3,0h.845V-8.71H1.3Z" transform="translate(158.165)" fill="#1c1c1b"/><path d="M8.58-4.355A3.728,3.728,0,0,1,5.07-.585a3.728,3.728,0,0,1-3.51-3.77,3.728,3.728,0,0,1,3.51-3.77A3.728,3.728,0,0,1,8.58-4.355Zm-7.93,0A4.6,4.6,0,0,0,5.07.26,4.6,4.6,0,0,0,9.49-4.355,4.6,4.6,0,0,0,5.07-8.97,4.6,4.6,0,0,0,.65-4.355Z" transform="translate(162.181)" fill="#1c1c1b"/></g><path d="M63.912-17.114H275.628v-.83H63.912Z" fill="#2faa4a" fill-rule="evenodd"/><path d="M7.085-18.354q.344.408.705.8L3.243-14.623a2.125,2.125,0,0,0-.635,2.935L5.477-7.229a2.123,2.123,0,0,0,2.933.636l7.729-4.979.311.136.563.23.319.121L8.981-5.705a3.178,3.178,0,0,1-4.392-.952L1.72-11.116a3.182,3.182,0,0,1,.952-4.394Z" fill="#1c1c1b" fill-rule="evenodd"/><path d="M48.813-44.857a3.169,3.169,0,0,1,3.068,1.43l2.869,4.459a3.182,3.182,0,0,1-.952,4.395L51.04-32.8l.022-.347.024-.64,0-.3,2.137-1.376a2.125,2.125,0,0,0,.636-2.935l-2.869-4.459a2.12,2.12,0,0,0-1.735-.973Q49.047-44.348,48.813-44.857Z" fill="#1c1c1b" fill-rule="evenodd"/><path d="M28.01-50.18A24.43,24.43,0,0,1,52.422-25.755,24.43,24.43,0,0,1,28.01-1.33,24.43,24.43,0,0,1,3.6-25.755,24.43,24.43,0,0,1,28.01-50.18Z" fill="#32aa4a" fill-rule="evenodd"/><path d="M26.154-36.565a2.139,2.139,0,0,1,2.137,2.139,2.139,2.139,0,0,1-2.137,2.139,2.139,2.139,0,0,1-2.137-2.139A2.139,2.139,0,0,1,26.154-36.565Z" fill="#1c1c1b" fill-rule="evenodd"/><path d="M7.064-18.379A24.845,24.845,0,0,1,1.214-34.427,24.958,24.958,0,0,1,26.154-59.38,24.951,24.951,0,0,1,48.813-44.857l.015.032q.227.492.431,1a2.089,2.089,0,0,0-1.04.246q-.2-.489-.428-.968a3.1,3.1,0,0,1,.618-.232,3.072,3.072,0,0,0-.618.232A23.894,23.894,0,0,0,26.154-58.324,23.9,23.9,0,0,0,2.27-34.427a23.8,23.8,0,0,0,5.71,15.5L8-18.9q.337.394.69.772l.028.03a23.909,23.909,0,0,0,8.494,5.838l.186.076.545.208.5.177.028.01a23.8,23.8,0,0,0,7.677,1.264A23.9,23.9,0,0,0,49.923-32.078l.045-.512q.019-.3.039-.609l.007-.195v-.032q.023-.5.022-1a23.783,23.783,0,0,0-1.82-9.155,2.107,2.107,0,0,1,1.04-.246,24.827,24.827,0,0,1,1.835,9.4l-.008.644-.024.64-.022.347,0,.038A24.957,24.957,0,0,1,26.154-9.474a24.8,24.8,0,0,1-8.822-1.611l-.319-.121-.563-.23-.311-.136-.037-.017a24.994,24.994,0,0,1-8.311-5.963l-.023-.025q-.349-.381-.682-.777Z" fill="#1c1c1b" fill-rule="evenodd"/><path d="M65.074-25.483V-46.246H63.912V-24.32h11.3v-1.163Z" fill="#1c1c1b"/><path d="M79.692-24.32H91.32v-1.163H80.855v-9.468H88.33v-1.163H80.855v-8.97H90.987v-1.163h-11.3Zm8.8-27.74-.664-1-3.987,2.326.5.831Z" fill="#1c1c1b"/><path d="M95.971-35.283c0-5.648,4.817-10.465,9.966-10.465s9.967,4.817,9.967,10.465-4.818,10.465-9.967,10.465S95.971-29.635,95.971-35.283Zm21.1,0c0-6.312-5.315-11.628-11.129-11.628S94.808-41.6,94.808-35.283s5.315,11.628,11.129,11.628S117.066-28.971,117.066-35.283Z" fill="#1c1c1b"/><path d="M137-23.489V-46.246h-1.162V-27.31L122.382-47.077V-24.32h1.163V-43.256Z" fill="#1c1c1b"/><path d="M167.989-32.958l-9.8-14.119V-24.32h1.163v-19.1l8.638,12.458,8.637-12.458v19.1h1.163V-47.077Z" fill="#1c1c1b"/><path d="M191.41-47.575,182.938-24.32H184.1l1.661-4.651h11.3l1.661,4.651h1.163Zm0,3.322,5.149,14.119h-10.3Z" fill="#1c1c1b"/><path d="M213.835-33.788v-.166s4.651-1.163,4.651-5.98c0-3.488-2.824-6.312-7.475-6.312h-6.146V-24.32h1.163v-9.3h6.478l5.647,9.3h1.329Zm-7.807-1v-10.3h4.983c3.986,0,6.312,2.326,6.312,5.149s-2.326,5.149-6.312,5.149Z" fill="#1c1c1b"/><path d="M233.934-46.911c-5.814,0-11.129,5.316-11.129,11.628s5.315,11.628,11.129,11.628c6.478,0,9.3-5.648,9.3-5.648l-1-.664s-2.491,5.149-8.3,5.149c-5.15,0-9.967-4.817-9.967-10.465s4.817-10.465,9.967-10.465a9.671,9.671,0,0,1,7.641,4.153l1-.664A10.91,10.91,0,0,0,233.934-46.911Z" fill="#1c1c1b"/><path d="M247.555-24.32h11.627v-1.163H248.717v-9.468h7.475v-1.163h-7.475v-8.97H258.85v-1.163h-11.3Z" fill="#1c1c1b"/><path d="M265.494-25.483V-46.246h-1.162V-24.32h11.3v-1.163Z" fill="#1c1c1b"/><path d="M146.629-35.754s2.729-1.317,2.729-3.388a2.914,2.914,0,0,0-2.917-2.823,2.954,2.954,0,0,0-2.918,3.011,4.6,4.6,0,0,0,1.506,3.011s-2.917,1.317-2.917,3.67a3.86,3.86,0,0,0,4.14,3.67,4.849,4.849,0,0,0,3.764-1.882l1.412,1.506h1.506l-2.165-2.353a6.527,6.527,0,0,0,1.035-3.294h-1.129a4.976,4.976,0,0,1-.659,2.447Zm-.659-.753a3.928,3.928,0,0,1-1.223-2.447,1.737,1.737,0,0,1,1.694-1.882,1.686,1.686,0,0,1,1.693,1.694C148.134-37.448,145.97-36.507,145.97-36.507Zm3.294,5.176a4.019,4.019,0,0,1-3.012,1.6c-1.882,0-2.917-1.035-2.917-2.541,0-1.788,2.353-2.917,2.353-2.917Z" fill="#1c1c1b"/></g></svg>