<svg xmlns="http://www.w3.org/2000/svg" width="126.6" height="22.281" viewBox="0 0 126.6 22.281"><g transform="translate(-0.295 0)"><g transform="translate(0.295 22.281) rotate(-90)"><rect width="33.781" height="22.281" transform="translate(22.281) rotate(90)" fill="#fff"/><rect width="19.406" height="9.344" transform="translate(1.437 1.437)" fill="#1254d3"/><rect width="19.406" height="10.781" transform="translate(1.437 11.5)" fill="#fff"/><rect width="19.406" height="9.344" transform="translate(1.437 22.281)" fill="#ff5d5d"/></g><path d="M1.98-3.3V-7.26H3.06A2.1,2.1,0,0,1,5.4-5.28,2.1,2.1,0,0,1,3.06-3.3ZM6.24-5.28A2.908,2.908,0,0,0,3.06-8.04H1.2V0h.78V-2.52H3.06A2.908,2.908,0,0,0,6.24-5.28ZM7.92,0h.72V-8.04H7.92Zm5.76-1.92A1.571,1.571,0,0,1,12.12-.48c-.78,0-1.14-.36-1.14-.84s.36-.84,1.26-.84a10.041,10.041,0,0,1,1.44.12ZM12.36-5.04a2.076,2.076,0,0,0-1.74.9l.54.42a1.7,1.7,0,0,1,1.2-.6A1.332,1.332,0,0,1,13.68-3v.3a5.516,5.516,0,0,0-1.44-.18c-1.32,0-2.04.72-2.04,1.56A1.654,1.654,0,0,0,12,.24a1.987,1.987,0,0,0,1.62-.96h.06V0h.72V-3A2.023,2.023,0,0,0,12.36-5.04Zm3.24.96h.84v2.7A1.44,1.44,0,0,0,17.88.24a1.893,1.893,0,0,0,.96-.36l-.3-.6a1.144,1.144,0,0,1-.6.24.827.827,0,0,1-.78-.9v-2.7h1.32V-4.8H17.16V-6.6h-.72v1.8H15.6Zm5.64,3.6a2.045,2.045,0,0,1-1.38-.78l-.54.48A2.42,2.42,0,0,0,21.24.24c1.2,0,1.92-.72,1.92-1.56,0-1.68-2.76-1.32-2.76-2.34,0-.36.3-.66.96-.66a1.88,1.88,0,0,1,1.2.6l.54-.48a2.238,2.238,0,0,0-1.74-.84c-1.08,0-1.74.66-1.74,1.38,0,1.68,2.76,1.32,2.76,2.34C22.38-.9,21.96-.48,21.24-.48ZM30.96-4.8h-.72v2.88A1.571,1.571,0,0,1,28.68-.48,1.332,1.332,0,0,1,27.36-1.8v-3h-.72v3A2,2,0,0,0,28.56.24a1.987,1.987,0,0,0,1.62-.96h.06V0h.72ZM33,0h.72V-8.04H33Zm2.16-4.08H36v2.7A1.44,1.44,0,0,0,37.44.24a1.893,1.893,0,0,0,.96-.36l-.3-.6a1.144,1.144,0,0,1-.6.24.827.827,0,0,1-.78-.9v-2.7h1.32V-4.8H36.72V-6.6H36v1.8h-.84Zm6.54-.18a2.27,2.27,0,0,1,.48.06l.18-.72a1.337,1.337,0,0,0-.54-.12,1.9,1.9,0,0,0-1.44.96h-.06V-4.8H39.6V0h.72V-2.88A1.438,1.438,0,0,1,41.7-4.26Zm4.74,2.34A1.571,1.571,0,0,1,44.88-.48c-.78,0-1.14-.36-1.14-.84s.36-.84,1.26-.84a10.041,10.041,0,0,1,1.44.12ZM45.12-5.04a2.076,2.076,0,0,0-1.74.9l.54.42a1.7,1.7,0,0,1,1.2-.6A1.332,1.332,0,0,1,46.44-3v.3A5.516,5.516,0,0,0,45-2.88c-1.32,0-2.04.72-2.04,1.56A1.654,1.654,0,0,0,44.76.24a1.987,1.987,0,0,0,1.62-.96h.06V0h.72V-3A2.023,2.023,0,0,0,45.12-5.04Zm7.2,2.28v-.72H48.36v.72Zm.72-1.32h.84V0h.72V-4.08h1.32V-4.8H54.6V-6.66a.827.827,0,0,1,.78-.9,1.144,1.144,0,0,1,.6.24l.3-.6a1.893,1.893,0,0,0-.96-.36,1.44,1.44,0,0,0-1.44,1.62V-4.8h-.84Zm6.06-.18a2.27,2.27,0,0,1,.48.06l.18-.72a1.337,1.337,0,0,0-.54-.12,1.9,1.9,0,0,0-1.44.96h-.06V-4.8H57V0h.72V-2.88A1.438,1.438,0,0,1,59.1-4.26Zm4.74,2.34A1.571,1.571,0,0,1,62.28-.48c-.78,0-1.14-.36-1.14-.84s.36-.84,1.26-.84a10.041,10.041,0,0,1,1.44.12ZM62.52-5.04a2.076,2.076,0,0,0-1.74.9l.54.42a1.7,1.7,0,0,1,1.2-.6A1.332,1.332,0,0,1,63.84-3v.3a5.516,5.516,0,0,0-1.44-.18c-1.32,0-2.04.72-2.04,1.56A1.654,1.654,0,0,0,62.16.24a1.987,1.987,0,0,0,1.62-.96h.06V0h.72V-3A2.023,2.023,0,0,0,62.52-5.04ZM66.24,0h.72V-4.8h-.72Zm.84-7.2a.516.516,0,0,0-.48-.48.516.516,0,0,0-.48.48.516.516,0,0,0,.48.48A.516.516,0,0,0,67.08-7.2ZM69.96-.48a2.045,2.045,0,0,1-1.38-.78l-.54.48A2.42,2.42,0,0,0,69.96.24c1.2,0,1.92-.72,1.92-1.56,0-1.68-2.76-1.32-2.76-2.34,0-.36.3-.66.96-.66a1.88,1.88,0,0,1,1.2.6l.54-.48a2.238,2.238,0,0,0-1.74-.84c-1.08,0-1.74.66-1.74,1.38,0,1.68,2.76,1.32,2.76,2.34C71.1-.9,70.68-.48,69.96-.48ZM3,9.52A1.865,1.865,0,0,1,1.26,7.6,1.865,1.865,0,0,1,3,5.68a1.8,1.8,0,0,1,1.5.9l.6-.36A2.383,2.383,0,0,0,3,4.96a2.643,2.643,0,0,0,0,5.28A2.463,2.463,0,0,0,5.22,8.86l-.6-.36A1.873,1.873,0,0,1,3,9.52ZM10.74,5.2h-.72V8.08A1.571,1.571,0,0,1,8.46,9.52,1.332,1.332,0,0,1,7.14,8.2v-3H6.42v3a2,2,0,0,0,1.92,2.04,1.987,1.987,0,0,0,1.62-.96h.06V10h.72Zm1.8,4.8h.72V5.2h-.72Zm.84-7.2a.48.48,0,0,0-.96,0,.48.48,0,1,0,.96,0Zm2.88,6.72a2.045,2.045,0,0,1-1.38-.78l-.54.48a2.42,2.42,0,0,0,1.92,1.02c1.2,0,1.92-.72,1.92-1.56,0-1.68-2.76-1.32-2.76-2.34,0-.36.3-.66.96-.66a1.88,1.88,0,0,1,1.2.6l.54-.48a2.238,2.238,0,0,0-1.74-.84c-1.08,0-1.74.66-1.74,1.38,0,1.68,2.76,1.32,2.76,2.34C17.4,9.1,16.98,9.52,16.26,9.52Zm3.12.48h.72V5.2h-.72Zm.84-7.2a.48.48,0,0,0-.96,0,.48.48,0,0,0,.96,0ZM21.9,10h.72V7.12a1.571,1.571,0,0,1,1.56-1.44A1.332,1.332,0,0,1,25.5,7v3h.72V7a1.9,1.9,0,0,0-3.54-1.08h-.06V5.2H21.9ZM32.1,7.96l.36-.36A2.634,2.634,0,0,0,30,4.96a2.645,2.645,0,0,0,.06,5.28,2.463,2.463,0,0,0,2.22-1.38l-.6-.36a1.873,1.873,0,0,1-1.62,1.02,1.8,1.8,0,0,1-1.74-1.56ZM30,5.68a1.792,1.792,0,0,1,1.68,1.56H28.32A1.792,1.792,0,0,1,30,5.68Zm1.02-2.64-.36-.66-1.56.96.24.48Zm3.96,6.48a2.045,2.045,0,0,1-1.38-.78l-.54.48a2.42,2.42,0,0,0,1.92,1.02c1.2,0,1.92-.72,1.92-1.56,0-1.68-2.76-1.32-2.76-2.34,0-.36.3-.66.96-.66a1.88,1.88,0,0,1,1.2.6l.54-.48a2.238,2.238,0,0,0-1.74-.84c-1.08,0-1.74.66-1.74,1.38,0,1.68,2.76,1.32,2.76,2.34C36.12,9.1,35.7,9.52,34.98,9.52Zm9.48-1.56.36-.36a2.466,2.466,0,1,0-2.4,2.64,2.463,2.463,0,0,0,2.22-1.38l-.6-.36a1.873,1.873,0,0,1-1.62,1.02,1.8,1.8,0,0,1-1.74-1.56Zm-2.1-2.28a1.792,1.792,0,0,1,1.68,1.56H40.68A1.792,1.792,0,0,1,42.36,5.68ZM46.14,10h.72V7.12a1.571,1.571,0,0,1,1.56-1.44A1.332,1.332,0,0,1,49.74,7v3h.72V7a1.9,1.9,0,0,0-3.54-1.08h-.06V5.2h-.72Zm8.52,0h.78V6.82h2.7V6.04h-2.7V2.74H59.1V1.96H54.66ZM62.4,5.74a2.27,2.27,0,0,1,.48.06l.18-.72a1.337,1.337,0,0,0-.54-.12,1.9,1.9,0,0,0-1.44.96h-.06V5.2H60.3V10h.72V7.12A1.438,1.438,0,0,1,62.4,5.74Zm4.74,2.34a1.571,1.571,0,0,1-1.56,1.44c-.78,0-1.14-.36-1.14-.84s.36-.84,1.26-.84a10.041,10.041,0,0,1,1.44.12ZM65.82,4.96a2.076,2.076,0,0,0-1.74.9l.54.42a1.7,1.7,0,0,1,1.2-.6A1.332,1.332,0,0,1,67.14,7v.3a5.516,5.516,0,0,0-1.44-.18c-1.32,0-2.04.72-2.04,1.56a1.654,1.654,0,0,0,1.8,1.56,1.987,1.987,0,0,0,1.62-.96h.06V10h.72V7A2.023,2.023,0,0,0,65.82,4.96ZM69.66,10h.72V7.12a1.571,1.571,0,0,1,1.56-1.44A1.332,1.332,0,0,1,73.26,7v3h.72V7a1.9,1.9,0,0,0-3.54-1.08h-.06V5.2h-.72Zm8.16-.48A1.865,1.865,0,0,1,76.08,7.6a1.865,1.865,0,0,1,1.74-1.92,1.8,1.8,0,0,1,1.5.9l.6-.36a2.383,2.383,0,0,0-2.1-1.26,2.643,2.643,0,0,0,0,5.28,2.463,2.463,0,0,0,2.22-1.38l-.6-.36A1.873,1.873,0,0,1,77.82,9.52Zm7.5-1.56.36-.36a2.466,2.466,0,1,0-2.4,2.64A2.463,2.463,0,0,0,85.5,8.86l-.6-.36a1.873,1.873,0,0,1-1.62,1.02,1.8,1.8,0,0,1-1.74-1.56Zm-2.1-2.28A1.792,1.792,0,0,1,84.9,7.24H81.54A1.792,1.792,0,0,1,83.22,5.68Z" transform="translate(41.215 10.594)" fill="#404040"/></g></svg>