<svg xmlns="http://www.w3.org/2000/svg" width="243.696" height="43.169" viewBox="0 0 243.696 43.169"><g transform="translate(20.536 -27.748)"><path d="M81.541-24.442a4.333,4.333,0,0,0-4.326-4.333H61.449V-20.1H77.215v0A4.333,4.333,0,0,0,81.541-24.442Zm0,9.2a4.333,4.333,0,0,0-4.326-4.333H61.449v8.671H77.215v-.005A4.332,4.332,0,0,0,81.541-15.246ZM49.57-19.579V-20.1H61.146v-.731a7.882,7.882,0,0,0-7.882-7.883H45.907a7.883,7.883,0,0,0-7.883,7.883v2.1a7.883,7.883,0,0,0,7.883,7.883h7.357a7.882,7.882,0,0,0,7.882-7.883v-.846Z" transform="translate(-58.56 60.907)" fill="#fff" fill-rule="evenodd"/><path d="M87.3-23.045c-.029,2.5,2.227,3.888,3.927,4.719,1.747.85,2.333,1.395,2.326,2.154-.013,1.164-1.394,1.676-2.684,1.7a9.377,9.377,0,0,1-4.606-1.095l-.812,3.8a13.607,13.607,0,0,0,4.987.921c4.712,0,7.793-2.327,7.808-5.932.02-4.575-6.327-4.827-6.283-6.872.015-.621.606-1.282,1.9-1.452a8.47,8.47,0,0,1,4.421.776l.789-3.676a12.063,12.063,0,0,0-4.2-.768C90.444-28.775,87.324-26.419,87.3-23.045Zm19.35-5.413a2.041,2.041,0,0,0-1.909,1.272L98.01-11.122h4.708l.936-2.59h5.753l.542,2.59H114.1l-3.621-17.337Zm.657,4.684,1.359,6.509h-3.72ZM81.593-28.458l-3.71,17.337h4.485l3.709-17.337Zm-6.635,0-4.668,11.8L68.4-26.691a2.09,2.09,0,0,0-2.068-1.767H58.7l-.106.5a18.75,18.75,0,0,1,4.424,1.475,1.9,1.9,0,0,1,1.065,1.523l3.576,13.835H72.4l7.266-17.337Z" transform="translate(-26.708 60.907)" fill="#fff"/><path d="M55.223-10.572a.447.447,0,0,1,.448.46.446.446,0,0,1-.448.463.447.447,0,0,1-.451-.463.448.448,0,0,1,.451-.46v-.092a.553.553,0,0,0-.562.552.553.553,0,0,0,.562.555.552.552,0,0,0,.559-.555.552.552,0,0,0-.559-.552Z" transform="translate(84.629 56.815)" fill="#fff" fill-rule="evenodd"/><path d="M54.894-10.491h.132c.067,0,.139.015.139.094,0,.1-.073.1-.155.1h-.116v.082h.111l.168.276h.108l-.182-.281a.166.166,0,0,0,.166-.176c0-.126-.075-.181-.226-.181H54.8v.638h.1Z" transform="translate(84.841 56.958)" fill="#fff" fill-rule="evenodd"/><path d="M51-8.857l.839-4.493h1.06l.111.443a1.477,1.477,0,0,1,1.171-.443l-.332,1.171c-.3,0-.87-.079-1.234,1.265l-.38,2.057Z" transform="translate(78.955 52.657)" fill="#fff" fill-rule="evenodd"/><path d="M45.158-13.8H46.38l-.251,1.19h.657l-.219.971h-.626L45.6-9.821c-.063.345-.031.658.674.548l-.078.908a1.735,1.735,0,0,1-.908.219c-.282,0-1.206-.173-.971-1.394Z" transform="translate(68.548 51.964)" fill="#fff" fill-rule="evenodd"/><path d="M46.184-12.279l.282-.908a2.915,2.915,0,0,0-1.206-.172c-.172,0-1.638-.018-1.863,1.065-.172.83.132,1.174.423,1.3.47.2.736.391.987.517a.355.355,0,0,1-.157.674,4.832,4.832,0,0,1-1.613-.11l-.172.923a4.966,4.966,0,0,0,1.441.157c.3,0,1.754.078,1.957-1.269a.978.978,0,0,0-.423-1.1,6.91,6.91,0,0,0-.877-.486c-.25-.11-.438-.532.016-.657a3.994,3.994,0,0,1,1.206.062Z" transform="translate(66.364 52.637)" fill="#fff" fill-rule="evenodd"/><path d="M44.53-8.293l1.018-5.419h-2l-1.488,3.289-.235-3.289H39.863L38.814-8.293h1.221l.751-3.915.329,3.915h1.159l1.707-3.821-.721,3.821Z" transform="translate(60.094 52.097)" fill="#fff" fill-rule="evenodd"/><path d="M51.656-12.3a1.556,1.556,0,0,0-.94-.219,1.683,1.683,0,0,0-1.487,1.488c-.2,1.3.689,1.942,1.942,1.519l.36,1.1a3.265,3.265,0,0,1-1.488.282c-1.269,0-2.647-1.128-2.02-3.414a2.944,2.944,0,0,1,2.756-2.271,2.025,2.025,0,0,1,1.676.72Z" transform="translate(74.109 51.934)" fill="#fff" fill-rule="evenodd"/><path d="M46.712-8.884l.83-4.447h1.049l.11.439a1.459,1.459,0,0,1,1.159-.439l-.313,1.174c-.3,0-.877-.094-1.237,1.237l-.376,2.036Z" transform="translate(72.323 52.687)" fill="#fff" fill-rule="evenodd"/><path d="M80.965-4.742a13.1,13.1,0,0,0-13.1-13.1,13.049,13.049,0,0,0-8.355,3.01,13.058,13.058,0,0,0-8.38-3.01,13.1,13.1,0,0,0-13.1,13.1,13.1,13.1,0,0,0,13.1,13.1,13.061,13.061,0,0,0,8.38-3.009,13.05,13.05,0,0,0,8.355,3.009A13.1,13.1,0,0,0,80.965-4.742Zm-.962,0A12.141,12.141,0,0,0,67.862-16.883a12.019,12.019,0,0,0-7.648,2.725A13.086,13.086,0,0,1,63.68-8.511H62.671a12.11,12.11,0,0,0-3.186-5.019A12.142,12.142,0,0,0,56.32-8.516H55.311a13.1,13.1,0,0,1,3.43-5.633,12.056,12.056,0,0,0-7.614-2.734A12.141,12.141,0,0,0,38.986-4.742,12.141,12.141,0,0,0,51.127,7.4a12.055,12.055,0,0,0,7.614-2.734,13.1,13.1,0,0,1-3.43-5.633H56.32a12.141,12.141,0,0,0,3.165,5.013A12.106,12.106,0,0,0,62.671-.974H63.68a13.084,13.084,0,0,1-3.466,5.647A12.021,12.021,0,0,0,67.862,7.4,12.141,12.141,0,0,0,80-4.742Z" transform="translate(58.871 45.697)" fill="#fff" fill-rule="evenodd"/><path d="M55.492-12.1c-.235-.172-.376-.532-.956-.532-.673,0-1.723-.125-2.317,1.91-.4,1.361.407,2.6,1.284,2.6a2.145,2.145,0,0,0,1.065-.36l.157.36H56.04l1.065-5.7H55.821Zm-.439,1.832a1.483,1.483,0,0,0-.078-1.1c-.376-.5-1.24-.1-1.5.877-.172.642.2,1.128.627,1.128C54.553-9.36,54.834-9.72,55.054-10.268Z" transform="translate(80.687 51.926)" fill="#fff" fill-rule="evenodd"/><path d="M51.783-13.362c2.038.006,1.836,1.473,1.711,2.083l-.486,2.443H51.865l-.157-.25a1.587,1.587,0,0,1-1.018.266,1.188,1.188,0,0,1-1.284-1.363c.344-1.879,2.537-1.534,2.85-1.566.141-.673-.329-.611-.752-.626a13.358,13.358,0,0,0-1.519.141l.188-.971.019,0a8.328,8.328,0,0,1,1.579-.153Zm.27,2.521a1.367,1.367,0,0,0-1.05.11c-.392.266-.5.736-.094.893a.832.832,0,0,0,1.049-.517Z" transform="translate(76.468 52.639)" fill="#fff" fill-rule="evenodd"/><path d="M43.671-13.362c2.038.006,1.836,1.473,1.711,2.083L44.9-8.836H43.753l-.157-.25a1.588,1.588,0,0,1-1.018.266,1.188,1.188,0,0,1-1.284-1.363c.344-1.879,2.537-1.534,2.85-1.566.141-.673-.328-.611-.752-.626a13.348,13.348,0,0,0-1.519.141l.188-.971.019,0a8.33,8.33,0,0,1,1.579-.153Zm.27,2.521a1.367,1.367,0,0,0-1.05.11c-.391.266-.5.736-.094.893a.833.833,0,0,0,1.049-.517Z" transform="translate(63.909 52.639)" fill="#fff" fill-rule="evenodd"/><path d="M49.1-10.85c.141-.72.47-2.505-1.675-2.505a2.349,2.349,0,0,0-2.271,2.239,1.959,1.959,0,0,0,2.036,2.271,4.179,4.179,0,0,0,1.566-.2l.188-.924a8.824,8.824,0,0,1-1.378.109c-.485,0-1.268.032-1.128-.986Zm-1.618-1.629a.938.938,0,0,0-.964.808l0,.007h1.519c.079-.439-.062-.815-.548-.815Z" transform="translate(69.896 52.649)" fill="#fff" fill-rule="evenodd"/><path d="M8.876-4.655H8.343v-1.6A3.377,3.377,0,0,0,4.97-9.625,3.377,3.377,0,0,0,1.6-6.252v1.6H1.065A1.065,1.065,0,0,0,0-3.59V.671A1.065,1.065,0,0,0,1.065,1.736H8.876A1.065,1.065,0,0,0,9.941.671V-3.59A1.065,1.065,0,0,0,8.876-4.655Zm-2.308,0h-3.2v-1.6a1.6,1.6,0,0,1,1.6-1.6,1.6,1.6,0,0,1,1.6,1.6Z" transform="translate(21.176 69.182)" fill="#fff"/><path d="M2.255-3.41V-6.27H2.97A1.516,1.516,0,0,1,4.62-4.84,1.516,1.516,0,0,1,2.97-3.41ZM6-4.84A2.782,2.782,0,0,0,2.97-7.48H.935V0h1.32V-2.2H2.97A2.782,2.782,0,0,0,6-4.84ZM9.46-7.92H9.35L6.105,0h1.43l.429-1.1h2.871l.44,1.1H12.7Zm-.11,3.3h.11l.88,2.31H8.47ZM13.86,0h1.32V-7.48H13.86Zm3.19,0h4.455V-1.21H18.37V-3.19h2.145V-4.4H18.37V-6.27H21.4V-7.48H17.05Zm9.405-1.65L28.6-4.29h.11V0h1.32V-7.7h-.22L26.455-3.575,23.1-7.7h-.22V0H24.2V-4.29h.11ZM31.9,0h4.455V-1.21H33.22V-3.19h2.145V-4.4H33.22V-6.27h3.025V-7.48H31.9ZM41.91-3.08,37.95-7.7h-.22V0h1.32V-4.4h.11L43.12.22h.22v-7.7H42.02v4.4Zm7.81-3.19V-7.48H44.55v1.21h1.925V0H47.8V-6.27ZM55.33-7.7a2.307,2.307,0,0,0-2.365,2.09c0,2.365,3.41,2.145,3.41,3.465A1.241,1.241,0,0,1,55.055-.99a2.122,2.122,0,0,1-1.6-1.045l-.99.715A3.162,3.162,0,0,0,55.165.22,2.461,2.461,0,0,0,57.75-2.035c0-2.365-3.41-2.145-3.41-3.465a1.016,1.016,0,0,1,1.1-.99c.66,0,1.21.77,1.21.77l.99-.715A2.847,2.847,0,0,0,55.33-7.7Zm3.8,7.7H63.58V-1.21H60.445V-3.19H62.59V-4.4H60.445V-6.27H63.47V-7.48H59.125Zm3.52-9.13-.44-.935-1.54.935.33.715Zm5.72,1.43a3.932,3.932,0,0,0-3.9,3.96,3.932,3.932,0,0,0,3.9,3.96,3.831,3.831,0,0,0,3.3-1.925l-1.155-.66A2.635,2.635,0,0,1,68.365-.99a2.685,2.685,0,0,1-2.53-2.75,2.685,2.685,0,0,1,2.53-2.75A2.574,2.574,0,0,1,70.4-5.28l1.155-.66A3.778,3.778,0,0,0,68.365-7.7Zm5.665.22H72.71v4.895A2.736,2.736,0,0,0,75.46.22a2.736,2.736,0,0,0,2.75-2.805V-7.48H76.89v4.895a1.5,1.5,0,0,1-1.43,1.6,1.5,1.5,0,0,1-1.43-1.6ZM84.04-3.135A2.305,2.305,0,0,0,85.3-5.115a2.525,2.525,0,0,0-2.75-2.365h-2.53V0h1.32V-2.75h1.43L84.315,0h1.43L84.04-3.025ZM81.345-3.96V-6.27h1.21A1.26,1.26,0,0,1,83.93-5.115,1.253,1.253,0,0,1,82.555-3.96ZM86.9,0h1.32V-7.48H86.9Zm5.39-7.7a2.307,2.307,0,0,0-2.365,2.09c0,2.365,3.41,2.145,3.41,3.465A1.241,1.241,0,0,1,92.015-.99a2.122,2.122,0,0,1-1.6-1.045l-.99.715A3.162,3.162,0,0,0,92.125.22,2.461,2.461,0,0,0,94.71-2.035C94.71-4.4,91.3-4.18,91.3-5.5a1.016,1.016,0,0,1,1.1-.99c.66,0,1.21.77,1.21.77l.99-.715A2.847,2.847,0,0,0,92.29-7.7ZM96.085,0h4.455V-1.21H97.4V-3.19H99.55V-4.4H97.4V-6.27h3.025V-7.48H96.085Zm3.52-9.13-.44-.935-1.54.935.33.715Zm5.83,5.72V-6.27h.715a1.516,1.516,0,0,1,1.65,1.43,1.516,1.516,0,0,1-1.65,1.43Zm3.74-1.43a2.782,2.782,0,0,0-3.025-2.64h-2.035V0h1.32V-2.2h.715A2.782,2.782,0,0,0,109.175-4.84Zm3.465-3.08h-.11L109.285,0h1.43l.429-1.1h2.871l.44,1.1h1.43Zm-.11,3.3h.11l.88,2.31h-1.87Zm5.225,1.98V0h1.32V-2.64l2.42-4.84H120.01l-1.54,3.135h-.11L116.82-7.48h-1.485ZM124.74-7.7a2.307,2.307,0,0,0-2.365,2.09c0,2.365,3.41,2.145,3.41,3.465a1.241,1.241,0,0,1-1.32,1.155,2.122,2.122,0,0,1-1.6-1.045l-.99.715A3.162,3.162,0,0,0,124.575.22a2.461,2.461,0,0,0,2.585-2.255c0-2.365-3.41-2.145-3.41-3.465a1.016,1.016,0,0,1,1.1-.99c.66,0,1.21.77,1.21.77l.99-.715A2.847,2.847,0,0,0,124.74-7.7ZM128.535,0h4.455V-1.21h-3.135V-3.19H132V-4.4h-2.145V-6.27h3.025V-7.48h-4.345Zm10.01-3.08-3.96-4.62h-.22V0h1.32V-4.4h.11l3.96,4.62h.22v-7.7h-1.32v4.4Zm5.5,3.08h2.475c1.705,0,2.75-1.045,2.75-2.145a1.96,1.96,0,0,0-1.65-1.87v-.11a1.568,1.568,0,0,0,1.21-1.485c0-.99-.88-1.87-2.42-1.87h-2.365Zm1.32-1.21v-2.2h1.155c.825,0,1.32.473,1.32,1.1s-.495,1.1-1.32,1.1Zm0-3.41V-6.27h1.045c.66,0,1.045.385,1.045.825s-.385.825-1.045.825Zm6.545,1.98V0h1.32V-2.64l2.42-4.84h-1.485l-1.54,3.135h-.11l-1.54-3.135H149.49Zm8.305,1.43V-7.48H158.9V0h4.235V-1.21Zm5.225-1.43V0h1.32V-2.64l2.42-4.84H167.7l-1.54,3.135h-.11l-1.54-3.135H163.02Zm8.8-.5a2.305,2.305,0,0,0,1.265-1.98,2.525,2.525,0,0,0-2.75-2.365h-2.53V0h1.32V-2.75h1.43L174.515,0h1.43L174.24-3.025Zm-2.695-.825V-6.27h1.21a1.26,1.26,0,0,1,1.375,1.155,1.253,1.253,0,0,1-1.375,1.155Zm8.195-3.96h-.11L176.385,0h1.43l.429-1.1h2.871l.44,1.1h1.43Zm-.11,3.3h.11l.88,2.31h-1.87Z" transform="translate(40.176 69.653)" fill="#fff"/><path d="M3.5-29.409H5.111a1.09,1.09,0,0,1,.769.269.975.975,0,0,1,.292.755,1.1,1.1,0,0,1-.26.729.986.986,0,0,1-.8.31H3.988v1.511H3.5Zm2.18,1.027a.538.538,0,0,0-.292-.535,1.054,1.054,0,0,0-.44-.075H3.988v1.238h.963a.921.921,0,0,0,.529-.139A.549.549,0,0,0,5.683-28.382Zm2.372,2.265a.6.6,0,0,0,.6-.33,1.642,1.642,0,0,0,.162-.733,1.306,1.306,0,0,0-.117-.594.657.657,0,0,0-.637-.36.629.629,0,0,0-.584.307,1.421,1.421,0,0,0-.182.74,1.236,1.236,0,0,0,.182.693A.643.643,0,0,0,8.055-26.117Zm.017-2.4a1.18,1.18,0,0,1,.851.336,1.311,1.311,0,0,1,.348.988,1.7,1.7,0,0,1-.307,1.041,1.109,1.109,0,0,1-.951.411A1.074,1.074,0,0,1,7.16-26.1a1.437,1.437,0,0,1-.316-.977,1.554,1.554,0,0,1,.333-1.046A1.119,1.119,0,0,1,8.072-28.516Zm2.221.075.5,2.053L11.3-28.44h.491L12.3-26.4l.533-2.041h.438l-.757,2.605h-.455l-.53-2.017-.513,2.017h-.455L9.813-28.44Zm4.78-.058a1.189,1.189,0,0,1,.538.13.991.991,0,0,1,.4.337,1.162,1.162,0,0,1,.175.46,3.008,3.008,0,0,1,.039.574h-1.91a1.114,1.114,0,0,0,.187.636.627.627,0,0,0,.542.24.7.7,0,0,0,.547-.226.763.763,0,0,0,.165-.3h.431a.907.907,0,0,1-.113.32,1.138,1.138,0,0,1-.215.288,1.02,1.02,0,0,1-.494.263,1.5,1.5,0,0,1-.358.039,1.1,1.1,0,0,1-.825-.354,1.377,1.377,0,0,1-.338-.991,1.5,1.5,0,0,1,.341-1.019A1.124,1.124,0,0,1,15.073-28.5Zm.7,1.153a1.135,1.135,0,0,0-.124-.455.636.636,0,0,0-.6-.316.666.666,0,0,0-.506.218.822.822,0,0,0-.217.553Zm1.3-1.095h.416v.45a.994.994,0,0,1,.251-.32.65.65,0,0,1,.46-.189l.041,0,.1.01v.462a.654.654,0,0,0-.072-.01l-.072,0a.625.625,0,0,0-.508.213.743.743,0,0,0-.178.49v1.5H17.07Z" transform="translate(178.918 82.972)" fill="#fff"/><path d="M2.672-21.921a1.188,1.188,0,0,1,.538.13.991.991,0,0,1,.4.337,1.162,1.162,0,0,1,.175.46,3.008,3.008,0,0,1,.039.574H1.911a1.114,1.114,0,0,0,.187.636.627.627,0,0,0,.543.24.7.7,0,0,0,.547-.226.763.763,0,0,0,.165-.3h.431a.907.907,0,0,1-.113.32,1.138,1.138,0,0,1-.215.288,1.02,1.02,0,0,1-.494.263,1.5,1.5,0,0,1-.358.039,1.1,1.1,0,0,1-.825-.354,1.377,1.377,0,0,1-.338-.991,1.5,1.5,0,0,1,.341-1.019A1.124,1.124,0,0,1,2.672-21.921Zm.7,1.153a1.134,1.134,0,0,0-.124-.455.636.636,0,0,0-.6-.316.666.666,0,0,0-.506.218.822.822,0,0,0-.217.553Z" transform="translate(196.309 76.395)" fill="#fff"/><path d="M1.583-27.2a1.291,1.291,0,0,0,.178.7.622.622,0,0,0,.569.282.6.6,0,0,0,.5-.262,1.235,1.235,0,0,0,.2-.751,1.11,1.11,0,0,0-.2-.731.63.63,0,0,0-.5-.237.658.658,0,0,0-.536.253A1.159,1.159,0,0,0,1.583-27.2Zm.659-1.379a.927.927,0,0,1,.5.127,1.177,1.177,0,0,1,.265.255v-1.316H3.43v3.586H3.036v-.362a.947.947,0,0,1-.362.348,1.038,1.038,0,0,1-.479.107A.97.97,0,0,1,1.44-26.2a1.431,1.431,0,0,1-.319-.974,1.682,1.682,0,0,1,.291-.986A.952.952,0,0,1,2.243-28.575Z" transform="translate(199.573 83.06)" fill="#fff"/><path d="M2.362-29.509h.426v1.3a.971.971,0,0,1,.343-.286.964.964,0,0,1,.433-.1,1.015,1.015,0,0,1,.789.334,1.425,1.425,0,0,1,.3.986,1.692,1.692,0,0,1-.3,1.027.971.971,0,0,1-.83.409.85.85,0,0,1-.5-.144,1.21,1.21,0,0,1-.26-.272v.333h-.4ZM3.5-26.227a.585.585,0,0,0,.532-.282,1.389,1.389,0,0,0,.176-.744,1.222,1.222,0,0,0-.176-.681.581.581,0,0,0-.519-.27.724.724,0,0,0-.524.221.994.994,0,0,0-.225.73,1.613,1.613,0,0,0,.092.6A.639.639,0,0,0,3.5-26.227Zm3.294-2.3h.484q-.092.251-.411,1.143-.238.671-.4,1.095a7.4,7.4,0,0,1-.535,1.216.612.612,0,0,1-.535.219,1.05,1.05,0,0,1-.142-.007,1.125,1.125,0,0,1-.123-.027v-.4a1.51,1.51,0,0,0,.165.039.646.646,0,0,0,.09.007.315.315,0,0,0,.179-.04.37.37,0,0,0,.1-.1q.012-.019.088-.2t.109-.268L4.9-28.528h.5l.7,2.121Z" transform="translate(203.014 83.06)" fill="#fff"/><path d="M3.123-29.409h.484v3.148h1.81v.426H3.123Zm4.456.968h.484q-.092.251-.411,1.143-.238.671-.4,1.095a7.4,7.4,0,0,1-.535,1.216.612.612,0,0,1-.535.219,1.05,1.05,0,0,1-.142-.007,1.125,1.125,0,0,1-.123-.027v-.4a1.511,1.511,0,0,0,.165.039.646.646,0,0,0,.09.007.315.315,0,0,0,.179-.04.37.37,0,0,0,.1-.1q.012-.019.088-.2t.109-.268L5.682-28.44h.5l.7,2.121Zm1.175,0H9.17v.45a.994.994,0,0,1,.251-.32.65.65,0,0,1,.46-.189l.041,0,.1.01v.462a.654.654,0,0,0-.072-.01l-.072,0a.625.625,0,0,0-.508.213.743.743,0,0,0-.178.49v1.5H8.754Zm2.282,1.912a.361.361,0,0,0,.139.3.514.514,0,0,0,.328.109,1,1,0,0,0,.448-.107.6.6,0,0,0,.365-.581v-.353a.749.749,0,0,1-.207.085,1.762,1.762,0,0,1-.248.049l-.265.034a1.014,1.014,0,0,0-.358.1A.389.389,0,0,0,11.036-26.528Zm1.061-.886a.238.238,0,0,0,.2-.127.385.385,0,0,0,.029-.168.356.356,0,0,0-.159-.325.855.855,0,0,0-.456-.1.58.58,0,0,0-.487.185.608.608,0,0,0-.1.3h-.409a.752.752,0,0,1,.313-.67,1.283,1.283,0,0,1,.7-.189,1.418,1.418,0,0,1,.747.175.594.594,0,0,1,.285.545v1.5a.192.192,0,0,0,.028.109.135.135,0,0,0,.118.041q.029,0,.066,0l.078-.011v.324a1.219,1.219,0,0,1-.156.036,1.137,1.137,0,0,1-.146.007.36.36,0,0,1-.328-.161.62.62,0,0,1-.075-.241,1.114,1.114,0,0,1-.384.3,1.189,1.189,0,0,1-.552.129.821.821,0,0,1-.592-.22.731.731,0,0,1-.23-.551.71.71,0,0,1,.226-.562,1.076,1.076,0,0,1,.594-.246Z" transform="translate(209.431 82.972)" fill="#fff"/><rect width="2.176" height="2.22" transform="translate(204.263 29.924) rotate(-90)" fill="#3675ba"/><path d="M-293.977-195.463h-12.435v2.177h10.258v19.4h-36.312v-19.4h20.09v-2.177h-22.267v23.752h40.665Z" transform="translate(516.638 223.211)" fill="#fff"/><path d="M-353.014-121.842l.233-1.1h-9.526l-.467,2.2h6.126l-8.167,8.852-.286,1.346h9.685l.47-2.213h-6.427Zm-21.734,6.391-.9,2.408-.832-2.461-1.328-3.771h-2.514l3.488,8.586-1.629,3.788h2.373l5.329-12.374h-2.39Zm37.861-3.965a4.9,4.9,0,0,0-3.147,1.31l.111-1.186h-1.93l-1.859,8.745h2.142l.948-4.461a2.989,2.989,0,0,1,2.75-2.443c1.381,0,1.892,1.009,1.61,2.337l-.971,4.568h2.16l.975-4.585c.583-2.744-.736-4.284-2.79-4.284m-14.073,3.488a3.031,3.031,0,0,1,2.8-1.7c1.24,0,2,.566,1.905,1.7Zm3.14-3.612a5.651,5.651,0,0,0-5.61,4.568c-.595,2.8.8,4.656,3.809,4.656a6.519,6.519,0,0,0,4.055-1.416l-1.091-1.363a4.342,4.342,0,0,1-2.51.814c-1.523,0-2.3-.779-2.207-1.859h6.816c1.1-3.594-.339-5.4-3.261-5.4m-48.183,3.2h-3.506v-4.39H-396a2.2,2.2,0,1,1,0,4.39m0-6.621c-1.948,0-3.9.018-5.843.018v12.392h2.337v-3.647H-396a4.385,4.385,0,1,0,0-8.763m9.862,10.693a2.5,2.5,0,0,1-2.585-2.655,2.486,2.486,0,0,1,2.585-2.638c3.4,0,3.4,5.293,0,5.293m2.585-5.807a3.2,3.2,0,0,0-2.78-1.416,4.25,4.25,0,0,0-4.55,4.567c0,3.063,1.912,4.656,4.5,4.638a3.317,3.317,0,0,0,2.833-1.54l.106,1.275h2.036v-8.728h-2.072Z" transform="translate(551.474 156.401)" fill="#fff"/></g></svg>