<svg height="26.206" viewBox="0 0 166 26.206" width="166" xmlns="http://www.w3.org/2000/svg">
<g fill="#717171" opacity=".503" transform="translate(20.536 -27.852)">

<path d="m81.541-24.442a4.333 4.333 0 0 0 -4.326-4.333h-15.766v8.675h15.766a4.333 4.333 0 0 0 4.326-4.342zm0 9.2a4.333 4.333 0 0 0 -4.326-4.333h-15.766v8.671h15.766v-.005a4.332 4.332 0 0 0 4.326-4.337zm-31.971-4.337v-.521h11.576v-.731a7.882 7.882 0 0 0 -7.882-7.883h-7.357a7.883 7.883 0 0 0 -7.883 7.883v2.1a7.883 7.883 0 0 0 7.883 7.883h7.357a7.882 7.882 0 0 0 7.882-7.883v-.846z" fill-rule="evenodd" transform="translate(-58.56 60.907)"/>
<path d="m87.3-23.045c-.029 2.5 2.227 3.888 3.927 4.719 1.747.85 2.333 1.395 2.326 2.154-.013 1.164-1.394 1.676-2.684 1.7a9.377 9.377 0 0 1 -4.606-1.095l-.812 3.8a13.607 13.607 0 0 0 4.987.921c4.712 0 7.793-2.327 7.808-5.932.02-4.575-6.327-4.827-6.283-6.872.015-.621.606-1.282 1.9-1.452a8.47 8.47 0 0 1 4.421.776l.789-3.676a12.063 12.063 0 0 0 -4.2-.768c-4.429-.005-7.549 2.351-7.573 5.725zm19.35-5.413a2.041 2.041 0 0 0 -1.909 1.272l-6.731 16.064h4.708l.936-2.59h5.753l.542 2.59h4.151l-3.621-17.337zm.657 4.684 1.359 6.509h-3.72zm-25.714-4.684-3.71 17.337h4.485l3.709-17.337zm-6.635 0-4.668 11.8-1.89-10.033a2.09 2.09 0 0 0 -2.068-1.767h-7.632l-.106.5a18.75 18.75 0 0 1 4.424 1.475 1.9 1.9 0 0 1 1.065 1.523l3.576 13.835h4.741l7.266-17.337z" transform="translate(-26.708 60.907)"/><g fill-rule="evenodd">
<path d="m55.223-10.572a.447.447 0 0 1 .448.46.446.446 0 0 1 -.448.463.447.447 0 0 1 -.451-.463.448.448 0 0 1 .451-.46v-.092a.553.553 0 0 0 -.562.552.553.553 0 0 0 .562.555.552.552 0 0 0 .559-.555.552.552 0 0 0 -.559-.552z" transform="translate(84.629 56.815)"/>
<path d="m54.894-10.491h.132c.067 0 .139.015.139.094 0 .1-.073.1-.155.1h-.116v.082h.111l.168.276h.108l-.182-.281a.166.166 0 0 0 .166-.176c0-.126-.075-.181-.226-.181h-.239v.638h.1z" transform="translate(84.841 56.958)"/>
<path d="m51-8.857.839-4.493h1.06l.111.443a1.477 1.477 0 0 1 1.171-.443l-.332 1.171c-.3 0-.87-.079-1.234 1.265l-.38 2.057z" transform="translate(78.955 52.657)"/>
<path d="m45.158-13.8h1.222l-.251 1.19h.657l-.219.971h-.626l-.341 1.818c-.063.345-.031.658.674.548l-.078.908a1.735 1.735 0 0 1 -.908.219c-.282 0-1.206-.173-.971-1.394z" transform="translate(68.548 51.964)"/>
<path d="m46.184-12.279.282-.908a2.915 2.915 0 0 0 -1.206-.172c-.172 0-1.638-.018-1.863 1.065-.172.83.132 1.174.423 1.3.47.2.736.391.987.517a.355.355 0 0 1 -.157.674 4.832 4.832 0 0 1 -1.613-.11l-.172.923a4.966 4.966 0 0 0 1.441.157c.3 0 1.754.078 1.957-1.269a.978.978 0 0 0 -.423-1.1 6.91 6.91 0 0 0 -.877-.486c-.25-.11-.438-.532.016-.657a3.994 3.994 0 0 1 1.206.062z" transform="translate(66.364 52.637)"/>
<path d="m44.53-8.293 1.018-5.419h-2l-1.488 3.289-.235-3.289h-1.962l-1.049 5.419h1.221l.751-3.915.329 3.915h1.159l1.707-3.821-.721 3.821z" transform="translate(60.094 52.097)"/>
<path d="m51.656-12.3a1.556 1.556 0 0 0 -.94-.219 1.683 1.683 0 0 0 -1.487 1.488c-.2 1.3.689 1.942 1.942 1.519l.36 1.1a3.265 3.265 0 0 1 -1.488.282c-1.269 0-2.647-1.128-2.02-3.414a2.944 2.944 0 0 1 2.756-2.271 2.025 2.025 0 0 1 1.676.72z" transform="translate(74.109 51.934)"/>
<path d="m46.712-8.884.83-4.447h1.049l.11.439a1.459 1.459 0 0 1 1.159-.439l-.313 1.174c-.3 0-.877-.094-1.237 1.237l-.376 2.036z" transform="translate(72.323 52.687)"/>
<path d="m80.965-4.742a13.1 13.1 0 0 0 -13.1-13.1 13.049 13.049 0 0 0 -8.355 3.01 13.058 13.058 0 0 0 -8.38-3.01 13.1 13.1 0 0 0 -13.1 13.1 13.1 13.1 0 0 0 13.1 13.1 13.061 13.061 0 0 0 8.38-3.009 13.05 13.05 0 0 0 8.355 3.009 13.1 13.1 0 0 0 13.1-13.1zm-.962 0a12.141 12.141 0 0 0 -12.141-12.141 12.019 12.019 0 0 0 -7.648 2.725 13.086 13.086 0 0 1 3.466 5.647h-1.009a12.11 12.11 0 0 0 -3.186-5.019 12.142 12.142 0 0 0 -3.165 5.014h-1.009a13.1 13.1 0 0 1 3.43-5.633 12.056 12.056 0 0 0 -7.614-2.734 12.141 12.141 0 0 0 -12.141 12.141 12.141 12.141 0 0 0 12.141 12.142 12.055 12.055 0 0 0 7.614-2.734 13.1 13.1 0 0 1 -3.43-5.633h1.009a12.141 12.141 0 0 0 3.165 5.013 12.106 12.106 0 0 0 3.186-5.02h1.009a13.084 13.084 0 0 1 -3.466 5.647 12.021 12.021 0 0 0 7.648 2.727 12.141 12.141 0 0 0 12.138-12.142z" transform="translate(58.871 45.697)"/>
<path d="m55.492-12.1c-.235-.172-.376-.532-.956-.532-.673 0-1.723-.125-2.317 1.91-.4 1.361.407 2.6 1.284 2.6a2.145 2.145 0 0 0 1.065-.36l.157.36h1.315l1.065-5.7h-1.284zm-.439 1.832a1.483 1.483 0 0 0 -.078-1.1c-.376-.5-1.24-.1-1.5.877-.172.642.2 1.128.627 1.128.451.003.732-.357.952-.905z" transform="translate(80.687 51.926)"/>
<path d="m51.783-13.362c2.038.006 1.836 1.473 1.711 2.083l-.486 2.443h-1.143l-.157-.25a1.587 1.587 0 0 1 -1.018.266 1.188 1.188 0 0 1 -1.284-1.363c.344-1.879 2.537-1.534 2.85-1.566.141-.673-.329-.611-.752-.626a13.358 13.358 0 0 0 -1.519.141l.188-.971h.019a8.328 8.328 0 0 1 1.579-.153zm.27 2.521a1.367 1.367 0 0 0 -1.05.11c-.392.266-.5.736-.094.893a.832.832 0 0 0 1.049-.517z" transform="translate(76.468 52.639)"/>
<path d="m43.671-13.362c2.038.006 1.836 1.473 1.711 2.083l-.482 2.443h-1.147l-.157-.25a1.588 1.588 0 0 1 -1.018.266 1.188 1.188 0 0 1 -1.284-1.363c.344-1.879 2.537-1.534 2.85-1.566.141-.673-.328-.611-.752-.626a13.348 13.348 0 0 0 -1.519.141l.188-.971h.019a8.33 8.33 0 0 1 1.579-.153zm.27 2.521a1.367 1.367 0 0 0 -1.05.11c-.391.266-.5.736-.094.893a.833.833 0 0 0 1.049-.517z" transform="translate(63.909 52.639)"/>
<path d="m49.1-10.85c.141-.72.47-2.505-1.675-2.505a2.349 2.349 0 0 0 -2.271 2.239 1.959 1.959 0 0 0 2.036 2.271 4.179 4.179 0 0 0 1.566-.2l.188-.924a8.824 8.824 0 0 1 -1.378.109c-.485 0-1.268.032-1.128-.986zm-1.618-1.629a.938.938 0 0 0 -.964.808v.007h1.519c.079-.439-.062-.815-.548-.815z" transform="translate(69.896 52.649)"/></g>

<!-- Paypal : redefine viewBox="0 0 170 26.206" width="226.712" -->
<!-- <path d="m65.5-15.452h-4.4a.611.611 0 0 0 -.6.516l-1.777 11.278a.366.366 0 0 0 .363.423h2.1a.611.611 0 0 0 .6-.517l.48-3.042a.61.61 0 0 1 .6-.517h1.392c2.9 0 4.57-1.4 5.006-4.18a3.388 3.388 0 0 0 -.561-2.839 4.081 4.081 0 0 0 -3.203-1.122m.507 4.12c-.241 1.578-1.446 1.578-2.612 1.578h-.664l.469-2.946a.366.366 0 0 1 .362-.309h.3c.794 0 1.543 0 1.931.453a1.466 1.466 0 0 1 .214 1.226" transform="translate(90.91 49.403)"/>
<path d="m72.593-13.735h-2.106a.367.367 0 0 0 -.362.309l-.093.589-.147-.214a3 3 0 0 0 -2.488-.883 4.843 4.843 0 0 0 -4.7 4.236 3.975 3.975 0 0 0 .785 3.236 3.3 3.3 0 0 0 2.653 1.072 4.03 4.03 0 0 0 2.912-1.21l-.094.585a.366.366 0 0 0 .362.424h1.9a.611.611 0 0 0 .6-.516l1.138-7.209a.365.365 0 0 0 -.361-.423m-2.936 4.1a2.348 2.348 0 0 1 -2.376 2.011 1.777 1.777 0 0 1 -1.414-.568 1.79 1.79 0 0 1 -.331-1.48 2.358 2.358 0 0 1 2.365-2.024 1.777 1.777 0 0 1 1.4.574 1.824 1.824 0 0 1 .357 1.49" transform="translate(96.969 51.754)"/>
<path d="m76.9-13.856h-2.112a.614.614 0 0 0 -.506.268l-2.919 4.3-1.238-4.132a.613.613 0 0 0 -.587-.436h-2.08a.367.367 0 0 0 -.348.485l2.331 6.842-2.19 3.094a.367.367 0 0 0 .3.579h2.114a.611.611 0 0 0 .5-.262l7.04-10.161a.366.366 0 0 0 -.3-.576" transform="translate(103.874 51.874)"/>
<path d="m77.815-15.452h-4.4a.611.611 0 0 0 -.6.516l-1.781 11.278a.366.366 0 0 0 .362.423h2.257a.428.428 0 0 0 .422-.361l.5-3.2a.61.61 0 0 1 .6-.517h1.392c2.9 0 4.569-1.4 5.007-4.18a3.385 3.385 0 0 0 -.561-2.839 4.077 4.077 0 0 0 -3.2-1.123m.508 4.12c-.24 1.578-1.446 1.578-2.612 1.578h-.663l.466-2.948a.365.365 0 0 1 .361-.309h.3c.794 0 1.543 0 1.931.453a1.467 1.467 0 0 1 .213 1.226" transform="translate(109.971 49.403)"/>
<path d="m84.9-13.735h-2.1a.365.365 0 0 0 -.361.309l-.093.589-.148-.214a3 3 0 0 0 -2.487-.883 4.843 4.843 0 0 0 -4.7 4.236 3.977 3.977 0 0 0 .784 3.236 3.3 3.3 0 0 0 2.653 1.072 4.03 4.03 0 0 0 2.91-1.21l-.094.585a.367.367 0 0 0 .363.424h1.9a.611.611 0 0 0 .6-.516l1.139-7.209a.367.367 0 0 0 -.363-.423m-2.936 4.1a2.346 2.346 0 0 1 -2.377 2.014 1.779 1.779 0 0 1 -1.414-.568 1.8 1.8 0 0 1 -.331-1.48 2.359 2.359 0 0 1 2.36-2.027 1.777 1.777 0 0 1 1.4.574 1.814 1.814 0 0 1 .356 1.49" transform="translate(116.031 51.754)"/>
<path d="m80.925-15.143-1.805 11.485a.366.366 0 0 0 .361.423h1.819a.61.61 0 0 0 .6-.517l1.78-11.278a.366.366 0 0 0 -.361-.424h-2.032a.368.368 0 0 0 -.362.31" transform="translate(122.491 49.402)"/> -->
</g></svg>