<?xml version="1.0" encoding="UTF-8" standalone="no"?>
<!DOCTYPE svg PUBLIC "-//W3C//DTD SVG 1.1//EN" "http://www.w3.org/Graphics/SVG/1.1/DTD/svg11.dtd">
<svg width="100%" height="100%" viewBox="0 0 232 120" version="1.1" xmlns="http://www.w3.org/2000/svg" xmlns:xlink="http://www.w3.org/1999/xlink" xml:space="preserve" xmlns:serif="http://www.serif.com/" style="fill-rule:evenodd;clip-rule:evenodd;stroke-linejoin:round;stroke-miterlimit:2;">
    <g>
        <path d="M231.908,26c-0,-14.35 -11.651,-26 -26,-26l-179.908,0c-14.35,0 -26,11.65 -26,26l0,67.103c0,14.35 11.65,26 26,26l179.908,0c14.349,0 26,-11.65 26,-26l-0,-67.103Z" style="fill:#fff;"/>
        <rect x="135.408" y="39" width="42" height="68" style="fill:#e68c38;"/>
        <path d="M219.408,59c-0,-11.038 -8.962,-20 -20,-20l-22,0l-0,68l22,0c11.038,0 20,-8.962 20,-20l-0,-28Z" style="fill:#d74c2e;"/>
        <rect x="93.408" y="39" width="42" height="68" style="fill:#fad340;"/>
        <rect x="51.408" y="39" width="42" height="68" style="fill:#9cc24d;"/>
        <path d="M121.751,77.053l5.996,1.901c-0.919,3.343 -2.448,5.825 -4.586,7.448c-2.138,1.622 -4.85,2.434 -8.137,2.434c-4.067,-0 -7.41,-1.39 -10.028,-4.168c-2.618,-2.779 -3.927,-6.577 -3.927,-11.396c-0,-5.098 1.316,-9.057 3.948,-11.877c2.632,-2.82 6.093,-4.231 10.383,-4.231c3.747,0 6.79,1.108 9.13,3.322c1.392,1.309 2.437,3.189 3.133,5.641l-6.121,1.462c-0.362,-1.588 -1.118,-2.841 -2.267,-3.76c-1.149,-0.92 -2.545,-1.379 -4.188,-1.379c-2.271,-0 -4.113,0.815 -5.526,2.444c-1.414,1.63 -2.121,4.269 -2.121,7.918c0,3.872 0.697,6.63 2.09,8.273c1.392,1.643 3.203,2.465 5.431,2.465c1.644,0 3.057,-0.522 4.241,-1.567c1.184,-1.044 2.034,-2.688 2.549,-4.93Z" style="fill:#fff;fill-opacity:0.4;fill-rule:nonzero;"/>
        <path d="M60.176,57.687l12.242,-0c2.423,-0 4.231,0.101 5.421,0.303c1.191,0.202 2.257,0.623 3.197,1.263c0.94,0.641 1.723,1.494 2.35,2.56c0.627,1.065 0.94,2.259 0.94,3.583c0,1.434 -0.386,2.75 -1.159,3.948c-0.773,1.198 -1.821,2.096 -3.144,2.695c1.866,0.543 3.3,1.469 4.303,2.779c1.003,1.309 1.504,2.848 1.504,4.617c0,1.392 -0.323,2.747 -0.971,4.063c-0.648,1.316 -1.532,2.368 -2.653,3.155c-1.121,0.786 -2.504,1.27 -4.147,1.451c-1.031,0.112 -3.517,0.182 -7.458,0.209l-10.425,0l-0,-30.626Zm6.184,5.097l-0,7.082l4.053,0c2.409,0 3.906,-0.035 4.491,-0.104c1.059,-0.126 1.891,-0.491 2.497,-1.097c0.606,-0.606 0.908,-1.403 0.908,-2.392c0,-0.947 -0.261,-1.717 -0.783,-2.309c-0.522,-0.591 -1.299,-0.95 -2.329,-1.075c-0.613,-0.07 -2.375,-0.105 -5.286,-0.105l-3.551,0Zm-0,12.18l-0,8.189l5.724,0c2.228,0 3.642,-0.062 4.241,-0.188c0.919,-0.167 1.668,-0.574 2.246,-1.222c0.578,-0.648 0.867,-1.515 0.867,-2.601c-0,-0.919 -0.223,-1.699 -0.669,-2.34c-0.446,-0.64 -1.09,-1.107 -1.932,-1.399c-0.843,-0.293 -2.671,-0.439 -5.484,-0.439l-4.993,-0Z" style="fill:#fff;fill-opacity:0.4;fill-rule:nonzero;"/>
        <path d="M186.761,88.313l-0,-30.626l22.709,-0l-0,5.181l-16.525,-0l-0,6.789l15.376,0l-0,5.161l-15.376,-0l-0,8.335l17.11,0l-0,5.16l-23.294,0Z" style="fill:#fff;fill-opacity:0.4;fill-rule:nonzero;"/>
        <path d="M143.57,57.687l11.302,-0c2.549,-0 4.492,0.195 5.829,0.585c1.796,0.529 3.335,1.469 4.617,2.82c1.281,1.351 2.256,3.005 2.925,4.962c0.668,1.956 1.002,4.369 1.002,7.238c0,2.521 -0.313,4.694 -0.94,6.519c-0.766,2.228 -1.859,4.032 -3.28,5.41c-1.072,1.045 -2.521,1.86 -4.345,2.445c-1.365,0.431 -3.189,0.647 -5.474,0.647l-11.636,0l-0,-30.626Zm6.184,5.181l-0,20.285l4.617,0c1.727,0 2.973,-0.097 3.739,-0.292c1.003,-0.251 1.835,-0.676 2.497,-1.275c0.661,-0.599 1.201,-1.584 1.619,-2.956c0.418,-1.372 0.627,-3.241 0.627,-5.609c-0,-2.368 -0.209,-4.185 -0.627,-5.453c-0.418,-1.267 -1.003,-2.256 -1.755,-2.966c-0.752,-0.711 -1.706,-1.191 -2.862,-1.442c-0.864,-0.195 -2.556,-0.292 -5.077,-0.292l-2.778,-0Z" style="fill:#fff;fill-opacity:0.4;fill-rule:nonzero;"/>
        <path d="M60.176,52.897c-0,-14.35 -11.65,-26 -26,-26l-8.176,-0c-14.35,-0 -26,11.65 -26,26l-0,40.206c-0,14.35 11.65,26 26,26l8.176,0c14.35,0 26,-11.65 26,-26l-0,-40.206Z" style="fill:#008950;"/>
        <path d="M60.176,52.897c-0,-14.35 -11.65,-26 -26,-26l-8.176,-0c-14.35,-0 -26,11.65 -26,26l-0,40.206c-0,14.35 11.65,26 26,26l8.176,0c14.35,0 26,-11.65 26,-26l-0,-40.206Zm-6,-0l-0,40.206c-0,11.038 -8.962,20 -20,20l-8.176,0c-11.038,0 -20,-8.962 -20,-20l-0,-40.206c-0,-11.038 8.962,-20 20,-20c-0,-0 8.176,-0 8.176,-0c11.038,-0 20,8.962 20,20Z" style="fill:#fff;"/>
        <path d="M49.779,92.327l-8.49,0l-3.375,-8.78l-15.452,-0l-3.19,8.78l-8.279,0l15.055,-38.654l8.253,-0l15.478,38.654Zm-14.37,-15.293l-5.326,-14.344l-5.221,14.344l10.547,0Z" style="fill:#fff;fill-rule:nonzero;"/>
        <g>
            <path d="M21.567,25l-0,-16l3.143,0l6.548,10.685l0,-10.685l3.002,-0l-0,16l-3.242,0l-6.45,-10.434l-0,10.434l-3.001,0Z" style="fill:#7d7d7d;fill-rule:nonzero;"/>
            <path d="M37.654,9l3.23,0l0,8.666c0,1.375 0.04,2.266 0.121,2.674c0.138,0.655 0.467,1.18 0.987,1.577c0.52,0.396 1.232,0.595 2.134,0.595c0.917,-0 1.608,-0.188 2.074,-0.562c0.465,-0.375 0.745,-0.835 0.84,-1.381c0.095,-0.546 0.142,-1.452 0.142,-2.718l-0,-8.851l3.23,0l0,8.404c0,1.921 -0.087,3.278 -0.262,4.071c-0.174,0.793 -0.496,1.462 -0.965,2.008c-0.47,0.546 -1.097,0.98 -1.883,1.304c-0.786,0.324 -1.812,0.486 -3.078,0.486c-1.528,-0 -2.687,-0.177 -3.476,-0.529c-0.789,-0.353 -1.413,-0.812 -1.872,-1.376c-0.458,-0.564 -0.76,-1.155 -0.906,-1.773c-0.211,-0.917 -0.316,-2.27 -0.316,-4.06l-0,-8.535Z" style="fill:#7d7d7d;fill-rule:nonzero;"/>
            <path d="M57.419,25l0,-13.293l-4.747,-0l-0,-2.707l12.714,0l0,2.707l-4.736,-0l-0,13.293l-3.231,0Z" style="fill:#7d7d7d;fill-rule:nonzero;"/>
            <path d="M67.482,25l-0,-16l6.799,0c1.71,0 2.953,0.144 3.728,0.431c0.774,0.288 1.395,0.799 1.86,1.534c0.466,0.734 0.699,1.575 0.699,2.521c-0,1.2 -0.353,2.192 -1.059,2.974c-0.705,0.782 -1.761,1.275 -3.165,1.479c0.699,0.407 1.275,0.855 1.73,1.342c0.455,0.488 1.068,1.353 1.839,2.598l1.954,3.121l-3.864,0l-2.335,-3.482c-0.83,-1.244 -1.397,-2.028 -1.703,-2.352c-0.306,-0.323 -0.629,-0.545 -0.971,-0.665c-0.342,-0.12 -0.884,-0.18 -1.627,-0.18l-0.654,-0l-0,6.679l-3.231,0Zm3.231,-9.233l2.39,-0c1.55,-0 2.517,-0.066 2.903,-0.197c0.386,-0.131 0.687,-0.356 0.906,-0.676c0.218,-0.321 0.327,-0.721 0.327,-1.201c0,-0.538 -0.144,-0.973 -0.431,-1.304c-0.287,-0.331 -0.693,-0.54 -1.217,-0.628c-0.262,-0.036 -1.048,-0.054 -2.357,-0.054l-2.521,-0l-0,4.06Z" style="fill:#7d7d7d;fill-rule:nonzero;"/>
            <rect x="83.515" y="9" width="3.231" height="16" style="fill:#7d7d7d;fill-rule:nonzero;"/>
            <rect x="89.452" y="17.666" width="6.025" height="3.067" style="fill:#7d7d7d;fill-rule:nonzero;"/>
            <path d="M96.448,19.794l3.143,-0.306c0.189,1.055 0.573,1.83 1.152,2.325c0.578,0.495 1.358,0.742 2.341,0.742c1.04,0 1.824,-0.22 2.352,-0.66c0.527,-0.44 0.791,-0.955 0.791,-1.544c-0,-0.379 -0.111,-0.701 -0.333,-0.966c-0.222,-0.266 -0.609,-0.497 -1.162,-0.693c-0.379,-0.131 -1.241,-0.364 -2.587,-0.699c-1.732,-0.429 -2.947,-0.957 -3.645,-1.582c-0.983,-0.881 -1.474,-1.954 -1.474,-3.22c0,-0.815 0.231,-1.577 0.693,-2.286c0.462,-0.71 1.128,-1.25 1.998,-1.621c0.869,-0.371 1.919,-0.557 3.148,-0.557c2.009,0 3.52,0.44 4.535,1.321c1.015,0.88 1.548,2.055 1.599,3.525l-3.231,0.142c-0.138,-0.822 -0.434,-1.413 -0.889,-1.774c-0.455,-0.36 -1.137,-0.54 -2.046,-0.54c-0.939,0 -1.674,0.193 -2.205,0.579c-0.342,0.247 -0.513,0.578 -0.513,0.993c0,0.378 0.16,0.702 0.48,0.971c0.408,0.342 1.397,0.699 2.969,1.07c1.571,0.371 2.734,0.755 3.487,1.151c0.753,0.397 1.342,0.939 1.768,1.626c0.426,0.688 0.638,1.537 0.638,2.549c0,0.916 -0.254,1.775 -0.764,2.575c-0.509,0.801 -1.229,1.396 -2.161,1.785c-0.931,0.389 -2.091,0.584 -3.481,0.584c-2.023,-0 -3.576,-0.468 -4.66,-1.403c-1.085,-0.935 -1.732,-2.297 -1.943,-4.087Z" style="fill:#7d7d7d;fill-rule:nonzero;"/>
            <path d="M122.412,19.117l3.133,0.994c-0.48,1.746 -1.279,3.043 -2.396,3.89c-1.117,0.848 -2.534,1.272 -4.251,1.272c-2.125,-0 -3.871,-0.726 -5.239,-2.178c-1.368,-1.451 -2.051,-3.436 -2.051,-5.953c-0,-2.663 0.687,-4.731 2.062,-6.205c1.375,-1.473 3.184,-2.21 5.425,-2.21c1.957,0 3.547,0.579 4.769,1.735c0.728,0.684 1.273,1.667 1.637,2.947l-3.198,0.764c-0.189,-0.829 -0.584,-1.484 -1.184,-1.964c-0.6,-0.48 -1.33,-0.721 -2.188,-0.721c-1.186,0 -2.148,0.426 -2.887,1.277c-0.738,0.852 -1.108,2.23 -1.108,4.137c0,2.023 0.364,3.463 1.092,4.322c0.727,0.858 1.673,1.288 2.837,1.288c0.859,-0 1.597,-0.273 2.216,-0.819c0.618,-0.546 1.062,-1.404 1.331,-2.576Z" style="fill:#7d7d7d;fill-rule:nonzero;"/>
            <path d="M127.662,17.098c0,-1.63 0.244,-2.997 0.731,-4.103c0.364,-0.815 0.861,-1.547 1.49,-2.194c0.629,-0.648 1.319,-1.128 2.068,-1.441c0.997,-0.422 2.147,-0.633 3.449,-0.633c2.358,0 4.244,0.731 5.659,2.194c1.415,1.462 2.123,3.496 2.123,6.101c-0,2.583 -0.702,4.604 -2.107,6.063c-1.404,1.458 -3.281,2.188 -5.631,2.188c-2.379,-0 -4.271,-0.726 -5.676,-2.178c-1.404,-1.451 -2.106,-3.45 -2.106,-5.997Zm3.329,-0.109c-0,1.812 0.418,3.185 1.255,4.12c0.837,0.935 1.899,1.403 3.187,1.403c1.288,-0 2.345,-0.464 3.17,-1.392c0.826,-0.928 1.239,-2.319 1.239,-4.175c0,-1.833 -0.402,-3.201 -1.206,-4.103c-0.804,-0.902 -1.872,-1.354 -3.203,-1.354c-1.332,0 -2.405,0.457 -3.22,1.37c-0.815,0.913 -1.222,2.29 -1.222,4.131Z" style="fill:#7d7d7d;fill-rule:nonzero;"/>
            <path d="M145.714,25l-0,-16l6.799,0c1.71,0 2.953,0.144 3.728,0.431c0.774,0.288 1.395,0.799 1.86,1.534c0.466,0.734 0.699,1.575 0.699,2.521c-0,1.2 -0.353,2.192 -1.059,2.974c-0.706,0.782 -1.761,1.275 -3.165,1.479c0.699,0.407 1.275,0.855 1.73,1.342c0.455,0.488 1.068,1.353 1.839,2.598l1.954,3.121l-3.864,0l-2.336,-3.482c-0.829,-1.244 -1.397,-2.028 -1.702,-2.352c-0.306,-0.323 -0.63,-0.545 -0.971,-0.665c-0.342,-0.12 -0.885,-0.18 -1.627,-0.18l-0.655,-0l0,6.679l-3.23,0Zm3.23,-9.233l2.391,-0c1.549,-0 2.517,-0.066 2.903,-0.197c0.385,-0.131 0.687,-0.356 0.906,-0.676c0.218,-0.321 0.327,-0.721 0.327,-1.201c0,-0.538 -0.144,-0.973 -0.431,-1.304c-0.287,-0.331 -0.693,-0.54 -1.217,-0.628c-0.262,-0.036 -1.048,-0.054 -2.357,-0.054l-2.522,-0l0,4.06Z" style="fill:#7d7d7d;fill-rule:nonzero;"/>
            <path d="M161.845,25l-0,-16l11.863,0l0,2.707l-8.633,-0l0,3.547l8.033,-0l0,2.696l-8.033,-0l0,4.354l8.939,0l0,2.696l-12.169,-0Z" style="fill:#7d7d7d;fill-rule:nonzero;"/>
        </g>
    </g>
</svg>
